<!DOCTYPE xml>
<svg width="24" height="24" viewBox="0 0 24 24" fill="none" xmlns="http://www.w3.org/2000/svg">
	<path d="M21.4285 17.0452V6.95482C22.0133 6.81111 22.548 6.52168 22.9783 6.11591C23.4086 5.71013 23.7192 5.20247 23.8786 4.64445C24.038 4.08644 24.0405 3.49794 23.8858 2.93871C23.7311 2.37948 23.4248 1.86943 22.9979 1.46034C22.571 1.05124 22.0388 0.75768 21.4553 0.609448C20.8717 0.461216 20.2576 0.463593 19.6754 0.616339C19.0931 0.769086 18.5633 1.06676 18.1399 1.47915C17.7165 1.89153 17.4145 2.40394 17.2645 2.96435H6.73546C6.58551 2.40394 6.28349 1.89153 5.86007 1.47915C5.43666 1.06676 4.90692 0.769086 4.32465 0.616339C3.74237 0.463593 3.12829 0.461216 2.54474 0.609448C1.9612 0.75768 1.42897 1.05124 1.00209 1.46034C0.575211 1.86943 0.268884 2.37948 0.114207 2.93871C-0.0404706 3.49794 -0.0379896 4.08644 0.121398 4.64445C0.280785 5.20247 0.591403 5.71013 1.02172 6.11591C1.45203 6.52168 1.98672 6.81111 2.57149 6.95482V17.0452C1.98672 17.1889 1.45203 17.4783 1.02172 17.8841C0.591403 18.2899 0.280785 18.7975 0.121398 19.3555C-0.0379896 19.9136 -0.0404706 20.5021 0.114207 21.0613C0.268884 21.6205 0.575211 22.1306 1.00209 22.5397C1.42897 22.9488 1.9612 23.2423 2.54474 23.3906C3.12829 23.5388 3.74237 23.5364 4.32465 23.3837C4.90692 23.2309 5.43666 22.9332 5.86007 22.5209C6.28349 22.1085 6.58551 21.5961 6.73546 21.0357H17.2645C17.4145 21.5961 17.7165 22.1085 18.1399 22.5209C18.5633 22.9332 19.0931 23.2309 19.6754 23.3837C20.2576 23.5364 20.8717 23.5388 21.4553 23.3906C22.0388 23.2423 22.571 22.9488 22.9979 22.5397C23.4248 22.1306 23.7311 21.6205 23.8858 21.0613C24.0405 20.5021 24.038 19.9136 23.8786 19.3555C23.7192 18.7975 23.4086 18.2899 22.9783 17.8841C22.548 17.4783 22.0133 17.1889 21.4285 17.0452ZM20.5714 2.14292C20.9104 2.14292 21.2419 2.23928 21.5238 2.41979C21.8057 2.60031 22.0254 2.85689 22.1552 3.15708C22.2849 3.45727 22.3188 3.78759 22.2527 4.10627C22.1866 4.42495 22.0233 4.71768 21.7835 4.94744C21.5438 5.17719 21.2383 5.33366 20.9058 5.39705C20.5733 5.46044 20.2286 5.42791 19.9153 5.30356C19.6021 5.17922 19.3344 4.96865 19.146 4.69849C18.9576 4.42832 18.8571 4.11069 18.8571 3.78577C18.8576 3.35021 19.0384 2.93264 19.3598 2.62466C19.6811 2.31667 20.1169 2.14342 20.5714 2.14292ZM1.71436 3.78577C1.71436 3.46085 1.8149 3.14322 2.00326 2.87305C2.19163 2.60289 2.45936 2.39232 2.77261 2.26798C3.08585 2.14364 3.43053 2.1111 3.76307 2.17449C4.0956 2.23788 4.40106 2.39435 4.6408 2.6241C4.88055 2.85386 5.04382 3.14659 5.10996 3.46527C5.17611 3.78395 5.14216 4.11427 5.01241 4.41446C4.88266 4.71465 4.66294 4.97123 4.38103 5.15175C4.09912 5.33226 3.76768 5.42862 3.42863 5.42862C2.97412 5.42818 2.53835 5.25496 2.21696 4.94696C1.89557 4.63896 1.71481 4.22135 1.71436 3.78577ZM3.42863 21.8571C3.08958 21.8571 2.75814 21.7607 2.47623 21.5802C2.19432 21.3997 1.9746 21.1431 1.84485 20.8429C1.7151 20.5427 1.68115 20.2124 1.7473 19.8937C1.81344 19.575 1.97671 19.2823 2.21646 19.0526C2.4562 18.8228 2.76166 18.6663 3.09419 18.6029C3.42673 18.5396 3.77141 18.5721 4.08465 18.6964C4.3979 18.8208 4.66563 19.0313 4.854 19.3015C5.04236 19.5717 5.1429 19.8893 5.1429 20.2142C5.14238 20.6498 4.9616 21.0674 4.64023 21.3753C4.31885 21.6833 3.88312 21.8566 3.42863 21.8571ZM17.2645 19.3928H6.73546C6.58195 18.828 6.27401 18.3128 5.84339 17.9001C5.41278 17.4874 4.87508 17.1923 4.28577 17.0452V6.95482C4.87504 6.80763 5.41269 6.51249 5.8433 6.09983C6.2739 5.68717 6.58187 5.17192 6.73546 4.60719H17.2645C17.418 5.17195 17.726 5.68725 18.1566 6.09992C18.5872 6.51259 19.1249 6.8077 19.7142 6.95482V17.0452C19.1249 17.1922 18.5872 17.4873 18.1565 17.9C17.7259 18.3127 17.418 18.828 17.2645 19.3928ZM20.5714 21.8571C20.2323 21.8571 19.9009 21.7607 19.619 21.5802C19.3371 21.3997 19.1173 21.1431 18.9876 20.8429C18.8578 20.5427 18.8239 20.2124 18.89 19.8937C18.9562 19.575 19.1194 19.2823 19.3592 19.0526C19.5989 18.8228 19.9044 18.6663 20.2369 18.6029C20.5695 18.5396 20.9142 18.5721 21.2274 18.6964C21.5406 18.8208 21.8084 19.0313 21.9967 19.3015C22.1851 19.5717 22.2856 19.8893 22.2856 20.2142C22.285 20.6498 22.1042 21.0673 21.7829 21.3752C21.4615 21.6832 21.0258 21.8565 20.5714 21.8571Z" fill="currentColor" />
</svg>
