<!DOCTYPE xml>
<svg width="24" height="24" viewBox="0 0 24 24" fill="none" xmlns="http://www.w3.org/2000/svg">
	<path d="M3.09375 9.4043H20.9177" stroke="currentColor" stroke-width="2" stroke-linecap="round" stroke-linejoin="round" />
	<path d="M7.55859 17.1961H7.56786M16.4428 13.3096H16.452H16.4428ZM12.0053 13.3096H12.0146H12.0053ZM7.55859 13.3096H7.56786H7.55859ZM16.4428 17.1961H16.452H16.4428ZM12.0053 17.1961H12.0146H12.0053Z" stroke="currentColor" stroke-width="2" stroke-linecap="round" stroke-linejoin="round" />
	<path d="M16.043 2V5.29078" stroke="currentColor" stroke-width="2" stroke-linecap="round" stroke-linejoin="round" />
	<path d="M7.96484 2V5.29078" stroke="currentColor" stroke-width="2" stroke-linecap="round" stroke-linejoin="round" />
	<path fill-rule="evenodd" clip-rule="evenodd" d="M16.2383 3.57922H7.77096C4.83427 3.57922 3 5.21516 3 8.22225V17.2719C3 20.3263 4.83427 22 7.77096 22H16.229C19.175 22 21 20.3546 21 17.3475V8.22225C21.0092 5.21516 19.1842 3.57922 16.2383 3.57922Z" stroke="currentColor" stroke-width="2" stroke-linecap="round" stroke-linejoin="round" />
</svg>
