<svg width="24" height="24" viewBox="0 0 24 24" fill="none" xmlns="http://www.w3.org/2000/svg">
<path fill-rule="evenodd" clip-rule="evenodd" d="M8.51408 15.5909C8.7944 15.3105 9.25232 15.3105 9.53264 15.5928L10.7067 16.7707L13.6702 13.8062C13.9505 13.5259 14.4065 13.5249 14.6888 13.8062C14.9701 14.0875 14.9701 14.5425 14.6888 14.8238L11.2155 18.2981C11.0811 18.4334 10.8977 18.5093 10.7067 18.5093C10.5157 18.5093 10.3323 18.4334 10.1969 18.2971L8.51216 16.6094C8.23184 16.3281 8.23184 15.8721 8.51408 15.5909ZM3.34448 16.6709C3.34448 19.5317 5.06288 21.2405 7.94288 21.2405H15.2581C18.1381 21.2405 19.8565 19.5605 19.8565 16.7381V11.2565C19.8565 11.1504 19.7705 11.0645 19.6645 11.0645H3.53648C3.43044 11.0645 3.34448 11.1504 3.34448 11.2565V16.6709Z" fill="#737373"/>
<path fill-rule="evenodd" clip-rule="evenodd" d="M18.6759 5.59201C17.9751 4.90081 16.9863 4.50721 15.8151 4.40161V3.48001C15.8151 3.08641 15.4887 2.76001 15.0951 2.76001C14.6919 2.76001 14.3751 3.08641 14.3751 3.48001V6.88801C14.3079 6.90721 14.2503 6.92641 14.1831 6.92641C13.7799 6.92641 13.4631 6.60001 13.4631 6.20641V4.55521C13.4631 4.44917 13.3772 4.36321 13.2711 4.36321H8.82636V3.48001C8.82636 3.08641 8.50956 2.76001 8.10636 2.76001C7.71276 2.76001 7.38636 3.08641 7.38636 3.48001V6.88801C7.32876 6.90721 7.26156 6.92641 7.19436 6.92641C6.80076 6.92641 6.47436 6.60001 6.47436 6.20641V4.80054C6.47436 4.67581 6.35689 4.58413 6.23741 4.61996C4.40505 5.16935 3.34476 6.65483 3.34476 8.85601V9.43201C3.34476 9.53805 3.43072 9.62401 3.53676 9.62401H19.6647C19.7708 9.62401 19.8567 9.53805 19.8567 9.43201V8.85601C19.8567 7.50241 19.4535 6.36961 18.6759 5.59201Z" fill="#292929"/>
</svg>
