<svg width="22" height="22" viewBox="0 0 22 22" fill="none" xmlns="http://www.w3.org/2000/svg">
<path opacity="0.4" fill-rule="evenodd" clip-rule="evenodd" d="M14.8663 2.29169H7.13517C4.23759 2.29169 2.2915 4.32944 2.2915 7.36085V14.6392C2.2915 17.6706 4.23759 19.7084 7.13517 19.7084H14.8654C17.7621 19.7084 19.7082 17.6706 19.7082 14.6392V7.36085C19.7082 4.32944 17.763 2.29169 14.8663 2.29169Z" fill="#737373"/>
<path fill-rule="evenodd" clip-rule="evenodd" d="M15.5054 15.1878C15.5054 15.5673 15.1974 15.8753 14.8179 15.8753C14.4384 15.8753 14.1304 15.5673 14.1304 15.1878V12.5111C14.1304 12.1316 14.4384 11.8236 14.8179 11.8236C15.1974 11.8236 15.5054 12.1316 15.5054 12.5111V15.1878ZM11.7187 15.1878C11.7187 15.5673 11.4107 15.8753 11.0312 15.8753C10.6517 15.8753 10.3437 15.5673 10.3437 15.1878V6.81769C10.3437 6.43819 10.6517 6.13019 11.0312 6.13019C11.4107 6.13019 11.7187 6.43819 11.7187 6.81769V15.1878ZM7.86865 15.1878C7.86865 15.5673 7.56065 15.8753 7.18115 15.8753C6.80165 15.8753 6.49365 15.5673 6.49365 15.1878V9.52185C6.49365 9.14235 6.80165 8.83435 7.18115 8.83435C7.56065 8.83435 7.86865 9.14235 7.86865 9.52185V15.1878Z" fill="#737373"/>
</svg>
