
<svg width="20" height="20" viewBox="0 0 20 20" fill="none" xmlns="http://www.w3.org/2000/svg">
<path d="M10.0962 15.7681H17.2002C17.5282 15.7681 17.8002 16.0321 17.8002 16.3681C17.8002 16.6961 17.5282 16.9681 17.2002 16.9681H2.8002C2.4722 16.9681 2.2002 16.6961 2.2002 16.3681C2.2002 16.0321 2.4722 15.7681 2.8002 15.7681H4.6962H10.0962Z" fill="#1C1C1C"/>
<path opacity="0.4" d="M11.9902 13.8739L10.0959 15.7683H4.6959L3.1199 14.1843C2.1599 13.2323 2.1599 11.6803 3.1199 10.7203L5.9822 7.86548C6.07596 7.77197 6.22774 7.77206 6.32138 7.8657L11.9902 13.5345C12.0839 13.6283 12.0839 13.7802 11.9902 13.8739Z" fill="#1C1C1C"/>
<path fill-rule="evenodd" clip-rule="evenodd" d="M16.1438 9.71995C17.0398 8.82395 17.0398 7.35998 16.1438 6.46398L13.3838 3.70398C12.4878 2.80798 11.0318 2.80798 10.1358 3.70398L7.16941 6.67039C7.07573 6.76407 7.07569 6.91594 7.1693 7.00969L12.8381 12.686C12.9318 12.7799 13.0839 12.7799 13.1777 12.6862L16.1438 9.71995Z" fill="#1C1C1C"/>
</svg>
