<svg width="28" height="28" viewBox="0 0 28 28" fill="none" xmlns="http://www.w3.org/2000/svg">
<rect width="28" height="28" rx="14" transform="matrix(-1 0 0 1 28 0)" fill="#161616"/>
<path fill-rule="evenodd" clip-rule="evenodd" d="M17.5284 9.52858C17.2681 9.78892 17.2681 10.211 17.5284 10.4714L21.057 14L17.5284 17.5286C17.2681 17.7889 17.2681 18.211 17.5284 18.4714C17.7888 18.7317 18.2109 18.7317 18.4712 18.4714L22.4712 14.4714C22.7316 14.211 22.7316 13.7889 22.4712 13.5286L18.4712 9.52858C18.2109 9.26823 17.7888 9.26823 17.5284 9.52858Z" fill="white" fill-opacity="0.3"/>
<path fill-rule="evenodd" clip-rule="evenodd" d="M5.52843 9.52858C5.26808 9.78892 5.26808 10.211 5.52843 10.4714L9.05703 14L5.52843 17.5286C5.26808 17.7889 5.26808 18.211 5.52843 18.4714C5.78878 18.7317 6.21089 18.7317 6.47124 18.4714L10.4712 14.4714C10.7316 14.211 10.7316 13.7889 10.4712 13.5286L6.47124 9.52858C6.21089 9.26823 5.78878 9.26823 5.52843 9.52858Z" fill="white" fill-opacity="0.3"/>
</svg>
