
<svg width="20" height="20" viewBox="0 0 20 20" fill="none" xmlns="http://www.w3.org/2000/svg">
<path opacity="0.4" d="M6.25 3.75002H6.04167V1.66669C6.04167 1.32502 5.75833 1.04169 5.41667 1.04169C5.075 1.04169 4.79167 1.32502 4.79167 1.66669V3.75002H4.58333C3.25833 3.75002 2.5 4.50835 2.5 5.83335V10.8334C2.5 12.1584 3.25833 12.9167 4.58333 12.9167H4.79167V18.3334C4.79167 18.675 5.075 18.9584 5.41667 18.9584C5.75833 18.9584 6.04167 18.675 6.04167 18.3334V12.9167H6.25C7.575 12.9167 8.33333 12.1584 8.33333 10.8334V5.83335C8.33333 4.50835 7.575 3.75002 6.25 3.75002Z" fill="#292929"/>
<path d="M15.4165 7.08335H15.2082V1.66669C15.2082 1.32502 14.9248 1.04169 14.5832 1.04169C14.2415 1.04169 13.9582 1.32502 13.9582 1.66669V7.08335H13.7498C12.4248 7.08335 11.6665 7.84169 11.6665 9.16669V14.1667C11.6665 15.4917 12.4248 16.25 13.7498 16.25H13.9582V18.3334C13.9582 18.675 14.2415 18.9584 14.5832 18.9584C14.9248 18.9584 15.2082 18.675 15.2082 18.3334V16.25H15.4165C16.7415 16.25 17.4998 15.4917 17.4998 14.1667V9.16669C17.4998 7.84169 16.7415 7.08335 15.4165 7.08335Z" fill="#292929"/>
</svg>
