<svg width="22" height="22" viewBox="0 0 22 22" xmlns="http://www.w3.org/2000/svg">
<path opacity="0.4" d="M1.79248 5.49998C1.79248 3.55594 3.36844 1.97998 5.31248 1.97998H10.8517C12.7957 1.97998 14.3717 3.55594 14.3717 5.49998V16.0582C14.3717 18.0023 12.7957 19.5782 10.8517 19.5782H5.31249C3.36845 19.5782 1.79248 18.0023 1.79248 16.0582C1.79248 14.9487 1.79248 5.57402 1.79248 5.49998Z"/>
<path d="M16.531 7.88249L19.9302 10.1585L19.9404 10.168C20.1108 10.3262 20.2076 10.5481 20.2076 10.7806C20.2076 11.0131 20.1108 11.2351 19.9404 11.3933L19.9302 11.4028L16.5311 13.6787C16.1923 13.9825 15.6713 13.9597 15.3605 13.625C15.2481 13.504 15.1782 13.3581 15.1506 13.2064L15.1477 13.1905L15.1532 11.6168L10.2379 11.617C9.77621 11.617 9.40186 11.2427 9.40186 10.7811C9.40186 10.3193 9.77612 9.94497 10.2378 9.94497L15.1524 9.9448L15.1404 8.42987L15.1414 8.42032C15.1591 8.24558 15.2319 8.0747 15.3605 7.93622C15.6713 7.6015 16.1923 7.57873 16.531 7.88249Z" />
</svg>
