
<svg width="342" height="88" viewBox="0 0 342 88" fill="none" xmlns="http://www.w3.org/2000/svg">
<g clip-path="url(#clip0_6304_24933)">
<path d="M43.6807 78.1966C65.7626 78.1966 83.7845 60.1748 83.7845 38.19C83.7845 16.2053 65.7518 -1.9137 43.6807 -1.9137C21.6096 -1.9137 3.6634 16.1081 3.6634 38.19C3.57701 60.2719 21.5989 78.1966 43.6699 78.1966H43.6807Z" fill="white"/>
<path d="M44.7602 44.7661L80.0804 43.5027C79.724 47.4656 78.2771 51.0721 77.1109 55.2186C78.0072 56.9354 80.4475 51.1585 80.6203 50.5322C80.7067 50.4458 81.3437 47.7356 81.7001 48.8154C80.9766 50.4351 80.7067 52.0548 80.4367 53.0482C80.4367 53.1346 80.3503 54.3115 80.4367 54.128C80.6203 53.858 80.793 53.1346 80.8902 52.7782C81.3437 51.6984 81.7001 50.4351 81.97 49.7116C82.0564 49.528 82.1536 49.0853 82.24 48.7182C82.24 48.0919 82.9634 47.9083 82.6935 48.5346C82.6935 48.8909 82.24 50.3379 82.0672 50.7914C82.2508 51.4177 82.3372 50.8778 82.5207 50.6078C82.5207 50.6078 82.7907 49.798 82.9742 49.2581C83.1578 48.5346 83.4278 47.8111 83.6977 46.7313C83.7841 46.1914 84.1512 45.468 84.1512 46.1914C83.9677 47.3576 83.4277 49.2581 83.255 50.3379C83.255 50.6078 83.1686 50.8778 83.4385 50.8778C83.6221 50.1543 84.0648 48.8046 84.2484 48.621C84.9719 48.4374 83.6221 51.1477 83.6221 52.1303C83.6221 51.774 84.3456 50.597 84.5183 50.3271C85.1446 50.3271 84.432 50.7806 84.432 51.1369C84.432 51.2233 83.2658 54.4735 83.5357 54.4735C83.8057 54.1172 84.7019 51.5904 84.9827 51.5041C85.2526 51.774 83.9892 54.6571 83.9892 55.197C83.7193 55.6505 83.6329 56.1904 83.4493 56.6439C83.2658 56.8275 83.2658 57.0002 83.363 57.2702C83.363 57.0002 83.9893 56.4603 84.0864 56.104C84.27 55.7477 84.3564 55.3805 84.7127 55.6505C84.2592 57.0002 83.363 58.1772 82.8231 59.4406C82.3695 60.0669 81.7433 61.3302 82.3695 60.6068C82.9094 60.0669 82.9094 59.8833 83.2658 59.527L83.8921 58.5335C84.0756 58.4472 84.162 58.2636 84.432 58.2636C84.0756 59.1598 83.5357 60.0669 83.0822 60.8767C82.0024 62.0429 81.3653 63.5762 80.2855 64.6668C79.9292 65.1203 79.1194 65.7466 80.4691 65.2067C81.8188 64.0405 82.8987 62.3236 83.8057 60.7903C83.8921 60.7903 84.0756 60.8767 84.162 60.8767C83.0822 62.9499 81.6353 64.5696 80.3719 66.3729C80.0156 66.7292 79.1086 67.4527 78.925 67.9062C79.1949 67.9926 79.1086 67.9926 79.3785 67.8198C79.9184 67.1935 80.6419 66.5564 81.3653 66.0165L81.5489 66.2001C80.2855 67.8198 79.0222 69.2667 77.4025 70.5301C76.949 70.8864 76.3227 71.3399 75.8692 71.6099C76.4954 71.9662 78.9358 69.893 79.5621 69.4503C79.6485 69.2667 79.7456 69.2667 79.9184 69.094C80.0048 68.9104 80.6419 68.4677 80.6419 69.0076C79.832 69.7311 79.0222 70.5409 78.2123 71.2644C76.8626 72.4305 75.4156 73.6075 73.7959 74.5038C74.3358 74.7737 76.7654 73.2404 77.2189 72.8841C77.5752 72.6141 77.9424 72.3442 78.2987 72.0742C78.2987 72.1606 78.655 72.3442 78.7522 72.3442C77.9424 72.9704 77.0353 73.6075 76.1391 74.1474C75.2429 74.7737 74.0659 75.5944 73.0725 76.1343C72.0791 76.5878 70.9993 77.3004 69.9195 77.484C69.9195 77.754 71.6364 77.2141 71.8091 77.2141C73.1589 76.8577 74.5086 76.3178 75.6856 75.4108C76.0419 75.7671 75.9555 75.7671 75.502 76.0371C74.9621 76.4906 74.2387 76.6634 73.7851 77.2033C73.1589 77.4732 72.3382 78.0131 71.6255 78.1967C70.1786 79.0065 68.4725 79.6436 66.9392 80.1835C66.4857 80.1835 65.9458 80.5398 65.5895 80.5398C65.2331 80.5398 65.3195 80.7234 65.6759 80.7234C66.6693 80.7234 67.4791 80.637 68.3754 80.4535C69.0016 80.3671 69.6387 80.0971 70.1786 79.9136C71.0749 79.6436 72.0683 79.0173 73.0617 78.6502C73.0617 78.7366 73.1481 78.9201 73.2453 79.0065C72.4354 79.8164 71.0857 79.9999 70.0922 80.4535C70.0922 80.4535 69.9087 80.637 69.8223 80.637C69.3688 80.637 68.2026 81.2633 67.8355 81.2633C66.842 81.4469 65.4059 82.1595 64.4125 82.1595C65.136 82.4295 66.3993 82.0732 67.2092 81.8896C67.2092 82.0732 67.7491 82.2459 67.7491 82.3431C67.4791 83.2393 66.8528 84.1464 66.3993 84.9562C65.2331 85.4961 64.1425 86.2196 62.9764 86.7595C62.62 86.7595 62.3501 86.7595 62.62 86.2196C62.62 86.2196 63.5163 85.2262 63.0735 85.2262C62.7172 85.2262 62.3501 85.1398 62.3501 85.6797C62.3501 85.7661 62.2637 85.9496 62.1665 86.036C62.1665 86.6623 61.8966 87.9257 61.2703 88.1956C60.8168 88.6491 59.737 88.8219 59.1107 89.0918C57.7609 89.0918 55.9577 89.9881 54.6079 89.0918C54.2516 89.0918 53.7117 89.1782 53.9816 88.6383C54.2516 88.6383 54.338 88.6383 54.5215 88.5519C55.1478 88.5519 58.0309 87.8285 57.6746 87.2022C57.4046 87.2022 57.0483 87.2886 56.7783 87.0186C56.5084 87.0186 56.422 86.9322 56.152 86.8351C55.8821 86.3815 55.0722 86.7487 54.8023 86.3815C54.5323 86.2952 54.176 86.1116 54.7159 86.5651C54.7159 87.0186 54.8023 87.5585 54.2624 87.7313C54.0788 87.8177 53.8089 88.0012 53.5389 88.0012C53.1826 88.0012 52.0056 88.0876 52.0056 87.6449C51.6493 87.8285 51.9192 87.8285 51.9192 88.0984C52.1892 88.0984 51.7357 88.7247 51.6493 88.8219C51.1958 89.6317 49.1225 89.5454 48.4099 89.5454C48.1399 89.459 47.7836 89.3618 47.5136 89.2754C46.3475 88.6491 44.9869 88.1092 43.9071 87.3858C43.5508 87.3858 42.9137 87.8393 42.5574 88.1092C41.4776 88.8327 40.3978 89.9125 38.9508 89.9125C38.4973 89.9125 38.0546 89.9125 37.871 89.5562C37.6011 89.5562 37.6011 89.0163 37.6011 88.8327C37.6011 88.8327 38.2274 88.1092 37.6875 88.3792C37.1476 88.8327 35.8842 88.9191 35.1607 88.7355C34.4373 88.012 34.6208 87.8393 35.1607 87.2886C35.0744 87.2886 34.6208 86.9322 34.5345 86.8351C34.5345 86.6515 34.4481 86.4787 34.3509 86.2952C33.6274 86.6515 32.904 86.6515 32.2777 86.2088C31.8242 86.6623 31.2843 87.0186 30.4744 87.0186C30.2909 86.9322 30.1181 86.8351 29.9345 86.7487C28.6712 86.7487 28.8547 86.6623 28.8547 87.6449C28.8547 87.9149 28.9411 88.0984 28.8547 88.2712C28.8547 88.4548 28.6712 88.8975 28.4012 88.8975C27.9477 89.351 26.9543 89.6209 26.328 89.4374C25.7017 89.4374 25.4318 89.2538 25.0646 88.8111C24.7083 88.8111 24.7947 88.6275 24.7947 88.3576C24.3412 88.0012 24.3412 86.2844 25.0646 85.7445C25.151 85.6581 25.5181 85.1182 25.2482 85.1182C25.2482 84.8482 25.3346 84.7618 24.9782 84.7618C24.7083 84.7618 24.8919 84.4919 24.5247 84.4919C23.8984 84.2219 23.7149 84.5783 23.175 84.5783C22.5487 85.4745 21.6417 86.5651 20.4755 86.5651C20.2055 86.5651 19.8492 86.0252 19.8492 85.6689C19.6656 85.0426 19.7628 84.0492 19.9356 83.4121C19.4821 83.4121 19.3957 83.2285 19.0394 82.9586C18.953 82.9586 18.7694 82.5051 18.7694 82.4187C18.7694 81.8788 18.4131 81.9652 18.4131 81.7924C18.4131 81.3389 17.5168 81.8788 17.2469 81.8788H15.9835C15.9835 81.8788 16.0699 81.7924 16.0699 81.6952C15.1737 81.6952 14.5366 80.3455 14.9901 79.5356C14.8065 79.5356 14.9901 79.3521 14.9901 79.1793C15.2601 78.553 16.5234 78.0995 17.1497 77.8295C16.7934 77.8295 16.8798 77.376 16.5234 77.376C16.437 77.2896 16.3399 77.1925 16.3399 77.0197C15.7136 77.0197 16.5234 75.9399 15.4436 75.9399C15.2637 75.7599 15.0549 75.6699 14.8173 75.6699H14.6338C13.8239 75.6699 11.8371 74.5901 11.8371 73.8667C11.9235 73.5967 12.1934 73.4132 12.4634 73.1432C13.0033 72.6897 11.9235 72.8733 11.7399 72.247C11.2 72.0634 11.1136 71.5235 11.1136 71.0808C11.1136 70.4545 12.0099 70.0874 12.2798 69.5475C11.7399 69.1912 11.2864 69.4611 10.6601 69.2775H9.93665C9.48313 69.1912 8.85685 68.824 8.67328 68.4677C8.48972 68.0142 8.40333 67.3879 8.48972 66.848C8.48972 66.1245 10.023 65.9518 10.023 65.4011C9.56952 65.2175 9.29957 64.4076 9.02962 64.0513C8.84605 63.425 8.75967 62.6044 8.75967 61.9781C7.86343 61.9781 7.22635 61.8917 6.60007 61.0819C5.8766 60.3584 5.70384 59.5486 5.70384 58.5551C5.70384 57.5617 4.8076 58.1988 4.35409 57.7453C3.99775 57.7453 4.44047 56.9354 3.90057 56.8491C3.27429 56.3955 2.63721 55.7693 2.63721 54.8622C2.63721 53.5989 4.08414 54.6787 4.08414 53.5989C4.08414 51.882 4.2677 52.3355 5.3475 51.612C5.43389 50.9857 4.99117 51.1585 4.89399 50.6186C4.44047 50.2623 4.44047 49.6252 4.17052 49.3553C4.17052 47.9083 4.52685 47.3684 5.61745 46.7421H6.07097C6.69725 46.7421 6.79443 47.4656 7.06438 47.4656C7.42072 48.1891 7.33433 47.4656 7.15077 47.4656C7.15077 47.1957 7.23715 46.4722 6.88082 46.4722C6.88082 46.2022 6.88082 45.8459 6.79443 45.576C6.61087 45.576 6.70805 45.1224 6.70805 45.0361L44.8249 44.7661H44.7602Z" fill="#231F20"/>
<path d="M23.585 83.693C23.585 82.0733 25.1183 82.4296 26.1117 82.0733C26.738 82.0733 27.7314 81.447 28.0985 80.9935C28.3685 79.7301 27.2887 80.27 27.2887 79.2766C27.2887 78.3804 28.0985 78.6503 28.6384 78.6503C28.9084 78.6503 28.9084 78.8339 29.1783 78.8339C28.4549 79.1902 28.552 79.4602 28.552 80.0973C28.552 80.3672 27.9258 81.6306 28.6384 81.6306C28.6384 81.9005 29.0919 81.717 28.7248 81.9005C28.7248 82.7968 26.468 83.8874 26.1117 84.1573C26.2953 84.5136 27.3751 83.7038 27.5586 83.531C27.7422 83.6174 27.0187 84.8808 26.9323 85.0643C26.6624 85.8742 26.3061 86.7812 26.3061 87.6775C26.3061 88.2174 26.576 87.6775 26.576 87.4939C26.576 86.8676 27.5694 84.0709 28.1093 83.531C28.1957 83.7146 28.3793 84.6108 28.4657 84.6108C28.4657 84.9672 28.9192 85.4207 29.0055 85.6906C29.729 86.047 28.7356 84.1573 28.7356 83.801C28.3793 83.4446 28.822 82.6348 29.0055 82.2677C29.0055 82.354 29.5454 83.1639 29.5454 82.5376C29.5454 82.624 30.4417 82.5376 30.7116 82.5376L33.7783 82.7212C34.3182 83.3475 33.5947 84.1681 33.152 84.1681C32.2557 84.1681 30.8952 83.0019 30.6252 83.2719C29.3619 84.2653 31.975 85.885 30.8088 86.4249C30.3553 86.4249 29.0919 86.5113 28.7356 85.9714C26.6624 86.5113 28.4656 88.8544 25.9389 88.8544C24.492 88.8544 24.4056 87.2347 25.2155 86.3277C25.7554 85.7878 25.8417 84.1681 24.7619 84.1681C24.5784 84.3517 23.5958 84.1681 23.5958 83.7146L23.585 83.693Z" fill="#869A8F"/>
<path d="M51.9622 87.753H51.8759H51.7895H51.6923L51.6059 87.6558L51.5195 87.5695V87.4831L51.6059 87.2995H51.6923H51.7895H51.8759L51.9622 87.2131H52.0594L52.2322 87.0296H52.4158L52.5993 86.9432H52.7721H52.9557H53.042H53.2256H53.312H53.4956V87.0296V87.1159V87.2131V87.2995V87.3859V87.4831L53.1392 87.6558L52.9557 87.753H52.8693H52.6857H52.5993H52.4158H52.3294H52.1458H52.0594H51.9622Z" fill="#4A6E6F"/>
<path d="M37.8164 85.5833V85.4969V85.4105V85.3133V85.1405V85.0434V84.8706L37.9028 84.6006L38 84.687L38.0864 84.7734L38.1727 84.8706H38.2699H38.3563L38.4535 84.957L38.5399 85.0434H38.7234V85.2269L38.6263 85.3133H38.5399L38.3563 85.4105H38.2699L38.0864 85.4969H38L37.9028 85.5833H37.8164Z" fill="white"/>
<path d="M41.0665 84.8701C40.613 84.8701 39.9867 83.0668 40.1703 82.7105C39.8139 82.7105 39.544 82.0842 39.1768 82.0842C38.1834 82.4406 36.6501 83.7039 35.7539 83.164C35.4839 82.9805 35.0304 82.6241 35.5703 82.0842C35.7539 81.9978 35.3867 80.7345 35.9266 80.7345C35.9266 81.0044 36.4665 80.7345 36.5529 80.6481C37.0928 80.1946 37.7191 81.188 37.9999 81.5443C38.6261 81.2744 37.5463 80.5509 37.5463 80.281C37.8163 80.011 41.1529 79.9246 41.1529 81.0908C41.6064 81.0908 41.5092 82.1706 41.5092 82.5377C41.9627 82.8941 41.7792 81.7279 41.7792 81.5443C41.7792 80.4645 42.589 81.8143 42.6754 81.9978C42.859 82.3542 44.2951 84.4274 44.6622 83.6175C43.8524 83.0776 43.3125 81.6307 42.5026 80.918C42.4162 80.8317 41.9627 80.4645 42.3191 80.6481C43.1289 80.6481 44.0359 81.1016 44.5758 80.1082C44.2195 80.2918 39.9759 80.1082 39.9759 79.5683H38.0862C38.5398 79.212 40.2458 77.8514 40.1595 77.5815C39.436 78.035 38.5398 78.6613 37.8163 79.1148C35.4731 80.918 36.8229 77.8514 36.9201 77.8514C37.19 77.8514 37.2764 77.3979 37.1036 77.2251C37.5571 76.7716 38.097 76.4153 38.6369 76.1453C38.8205 76.0589 39.9867 75.8754 39.9867 75.9618C40.1703 75.9618 40.4402 76.2317 40.7102 76.2317C40.7102 76.5017 41.1637 77.0416 41.1637 77.5815C41.1637 79.1148 42.9669 78.9312 43.9603 78.6613C44.5002 79.0176 45.58 79.1148 45.58 80.011C45.3101 80.5509 45.2237 80.5509 44.8566 81.0044C44.8566 81.0908 44.7702 81.3608 44.673 81.4579C44.673 82.7213 46.2927 82.7213 46.2927 83.6175C46.2927 84.071 46.3791 85.0645 45.6664 85.0645C45.2129 85.6044 43.5932 85.3344 43.5932 84.4382C43.4097 84.4382 43.0533 84.2546 43.0533 84.0818C42.0599 83.8983 41.8763 84.8917 41.0665 84.8917V84.8701Z" fill="#869A8F"/>
<path d="M39.8033 84.3303L39.8897 84.1467H39.7061H39.5334L39.3498 84.0603L39.2634 83.9631H39.1662L39.0798 83.8767H38.8099L38.7235 83.7796V83.6932V83.6068H38.6263H38.5399L38.4536 83.5096V83.4232H38.3564L38.27 83.3368V83.2397H38.1728V83.1533H38.0864V83.0669V82.8833H38.1728H38.27H38.3564H38.4536H38.5399H38.6263L38.7235 82.7969V82.8833L38.9935 82.9697L39.0798 83.0669H39.2634L39.3498 83.1533L39.5334 83.2397L39.6197 83.3368L39.8033 83.4232V83.6068V83.6932V83.7796V83.8767V84.0603V84.2331H39.8897L39.8033 84.3303Z" fill="#869A8F"/>
<path d="M56.4759 83.1525C55.3098 83.336 53.3229 83.606 52.0596 83.606C50.7098 83.606 50.1699 82.9797 50.1699 82.0727C50.1699 80.453 53.8628 81.8891 55.0398 81.9863C56.3896 82.1698 57.4694 82.4398 58.8299 82.4398C60.1905 82.4398 58.1064 82.8933 57.9337 82.8933C57.8473 82.9797 56.8539 83.1633 56.4867 83.1633L56.4759 83.1525Z" fill="#FCEE1F"/>
<path d="M18.7154 81.8897C18.629 81.8897 18.0891 81.2634 17.6356 81.4362C16.8258 81.4362 15.1089 82.3324 15.1089 80.8099C15.1089 79.5465 15.6488 79.6437 16.3723 79.093C16.6422 79.363 18.0891 79.1794 18.0891 78.4667C18.4455 78.1104 17.4628 76.4799 19.5361 77.4733C20.8858 77.4733 21.7928 77.7433 21.7928 76.1236C21.7928 74.9574 23.7797 74.3203 24.136 75.2273C24.5895 75.2273 25.6693 76.4907 25.4858 76.7607C25.4858 77.8405 25.2158 77.6569 25.3994 78.294C24.3196 78.294 24.0496 77.5705 22.9698 77.3006C22.7863 76.9442 22.8834 77.0306 22.5163 77.117C22.5163 77.5705 23.5961 78.1104 24.0496 78.1968C23.8661 78.2832 21.7065 78.6503 21.4365 78.9203C20.8966 79.0066 19.4497 78.6503 19.007 78.1104C18.9206 78.294 18.8234 78.3803 18.8234 78.5639C19.2769 78.5639 20.1731 79.1902 20.4431 79.1902C19.8168 79.5465 18.5534 79.5465 17.83 79.5465C17.7436 79.6329 16.5666 79.9029 18.0999 79.9029C19.0933 79.9029 19.9896 79.9893 20.8966 79.5465C20.713 79.9029 19.6332 81.1662 19.8168 81.4362C20.2703 81.4362 20.8966 80.1728 21.2637 79.7193C22.16 78.9958 22.4299 78.7259 23.7905 78.7259C24.6867 78.4559 21.9872 80.3456 23.067 80.3456C23.2506 79.8921 24.9566 78.2724 24.9566 78.7259H25.9501C24.9566 79.1794 26.0364 79.6221 26.0364 79.7193C28.3796 80.3456 26.3928 81.6089 24.4167 81.6089C24.0604 81.6089 23.8769 81.8789 23.5205 82.5052C23.067 82.9587 22.1708 81.0583 21.1774 82.0517C20.3675 82.7751 20.4539 83.315 19.1905 83.315C18.8342 83.2286 18.9206 81.8681 18.737 81.8681L18.7154 81.8897Z" fill="#869A8F"/>
<path d="M46.6494 83.2392H46.563V83.1528V83.0664V82.9693V82.8829V82.6993H46.8329L47.1029 82.5265H47.3728L47.7292 82.343L47.9991 82.2566L48.2691 82.073L48.6362 81.8895L48.9925 81.6195H49.3489L49.6188 81.8031L49.2625 82.073L48.9062 82.1594L48.6362 82.2566L48.3555 82.343L47.9991 82.5265H47.8156L47.4592 82.6993L47.1893 82.7965L47.1029 82.8829L47.0057 82.9693L46.9193 83.0664L46.8329 83.1528V83.2392H46.6494Z" fill="#FCEE1F"/>
<path d="M46.2928 82.3439C45.8393 82.3439 45.8393 81.9876 45.5693 81.9876C45.5693 81.9012 45.3857 81.6313 45.3857 81.6313C45.3857 80.2815 46.9191 78.9318 47.7289 78.1219C48.8951 77.2257 50.0721 76.5022 51.2383 75.7787C50.1585 77.0421 48.9815 78.4782 48.5388 80.1087C48.1824 80.8322 47.459 82.3655 46.282 82.3655L46.2928 82.3439Z" fill="#FCEE1F"/>
<path d="M30.1612 81.9866C29.0814 81.5331 29.8048 80.2697 30.6147 79.7298C31.0682 79.1035 30.971 79.2763 30.971 78.5636C30.971 77.3974 28.088 77.9373 27.9044 77.9373C27.2781 77.9373 26.1011 77.581 26.1011 76.7712C26.1011 76.5876 26.9974 76.7712 27.4509 76.5012C28.9842 75.7777 27.2673 74.2444 26.2847 74.2444C26.1983 74.158 25.4749 73.7909 25.4749 73.7045C25.2049 72.6247 25.2913 71.9013 26.1983 71.4478C26.3819 71.6313 28.2715 72.2576 28.2715 72.4412C28.2715 72.7111 28.8978 73.1646 29.1678 73.3374C29.4377 73.5102 30.971 72.8839 31.0574 73.6937L31.6837 73.8773C32.8499 73.8773 31.2302 75.497 33.4006 75.497C34.2104 75.497 34.7503 74.8707 35.3874 75.4106C37.0071 76.5768 34.8475 78.8336 34.5776 80.2805C34.0377 79.3843 33.9513 77.581 33.9513 76.5876C33.5949 76.5876 33.5949 76.5012 33.4978 76.8575C33.4978 77.2139 33.4114 77.9373 33.5841 78.3045C33.3142 78.1209 33.1306 77.851 32.8607 77.581C32.6771 77.3111 31.5109 76.4148 31.5109 76.3176C31.0574 76.3176 30.7875 73.1646 30.4311 73.7909C30.4311 73.9745 30.4311 75.5078 30.7875 75.7777C29.6213 75.5078 27.7208 73.521 27.3645 72.4412H27.0082C27.2781 73.7909 28.6279 75.1407 29.8048 75.7777C31.2518 76.674 28.5415 76.0477 28.5415 76.5012C28.5415 77.1275 30.7011 76.7712 31.1546 76.6848C32.2344 77.1383 33.1414 78.5744 33.8541 79.4815C33.4006 79.4815 31.7809 79.3951 31.5973 79.7514C31.6837 80.2049 33.8541 79.7514 34.2104 80.3777C34.2104 80.5613 34.2104 81.5439 34.394 81.7274C33.9405 81.911 33.3142 81.7274 32.8607 81.911C32.4072 82.181 30.1612 81.9974 30.1612 81.9974V81.9866Z" fill="#869A8F"/>
<path d="M65.8485 81.2634C63.7753 82.2568 61.5186 82.0732 59.359 81.7169C58.8191 81.6305 59.4453 81.5333 59.8125 81.4469C60.6223 81.177 61.5294 81.0906 62.242 80.5507C63.5054 80.9071 64.5852 81.447 65.8485 81.2742V81.2634Z" fill="#FCEE1F"/>
<path d="M54.3054 79.46C55.0288 79.46 55.8387 79.46 56.5621 79.6435C58.7217 80.097 59.3588 80.1834 60.8921 80.367C61.0757 80.367 61.7884 80.5506 61.2485 80.5506C61.1621 80.5506 59.8987 80.9069 59.8015 80.9069C58.9917 81.2632 54.8453 81.8031 54.3917 81.3604C53.1284 81.3604 53.3983 79.4708 54.3054 79.4708V79.46Z" fill="#FCEE1F"/>
<path d="M49.8026 81.3494C47.2759 80.086 52.9556 75.6696 53.949 75.0433C52.6857 76.663 51.9622 78.6499 51.1524 80.4531C50.6988 80.993 50.6125 81.3494 49.8026 81.3494Z" fill="#FCEE1F"/>
<path d="M62.5983 79.914C62.1448 79.914 61.335 79.8276 62.4148 79.4605C63.7645 79.007 64.9415 78.5643 66.1077 77.9272C66.5612 77.9272 66.8311 78.1971 67.1011 78.1971C68.1809 78.1971 69.2607 78.1971 70.3405 78.0136C69.5306 78.4671 66.734 79.6333 65.8377 79.8168C64.3908 80.1732 65.2978 79.8168 62.5983 79.9032V79.914Z" fill="#FCEE1F"/>
<path d="M53.1392 79.547C52.6857 79.547 53.0528 79.3634 52.7829 79.3634C51.336 77.9165 56.3894 74.1372 56.6594 74.4071C55.396 76.2968 55.6659 78.6399 53.15 79.547H53.1392Z" fill="#FCEE1F"/>
<path d="M62.9546 78.6503C63.5809 78.6503 62.771 78.8339 62.771 78.8339C62.5011 79.1038 59.618 79.5573 59.2617 79.5573C58.3655 79.5573 57.1885 79.8273 57.1885 78.5639C57.1885 77.0306 60.4279 77.8404 61.1513 78.2076C61.6049 78.3911 62.3175 78.6611 62.9546 78.6611V78.6503Z" fill="#FCEE1F"/>
<path d="M45.8397 79.0071L45.7425 78.9207L45.6561 78.8235H45.5697L45.4725 78.7371H45.2998V78.6507L45.1162 78.5535V78.3808L45.3862 78.1108L45.8397 77.7437L46.1096 77.4738L46.5631 77.1174L47.0059 76.9339L47.5458 76.6639L47.9993 76.4911L48.6364 76.2104L48.4528 76.4911L48.2692 76.5775L48.0857 76.8475L47.9993 76.9339L47.7293 77.031L47.5458 77.2038L47.373 77.3874L47.2758 77.5709L47.103 77.6573L46.8331 77.9273L46.7359 78.1108L46.6495 78.1972L46.5631 78.2836L46.466 78.3808V78.4672L46.2932 78.5535L46.196 78.7371L46.1096 78.8235L46.0232 78.9207V79.0071H45.8397Z" fill="#FCEE1F"/>
<path d="M16.0158 76.3934C16.0158 75.7671 17.6355 75.3136 17.6355 74.2338C17.6355 73.6939 16.2857 72.9705 16.1022 72.1606C16.1022 70.9944 17.3655 71.6207 16.9984 70.4437C16.9984 70.1738 16.2749 69.5475 16.005 69.5475C15.9186 69.3639 15.1088 67.9278 15.4651 67.5607C15.6487 67.2907 16.1886 66.6644 16.5449 66.6644C17.1712 66.3945 17.2684 67.0208 17.7111 66.7508C18.6073 67.647 18.1646 69.8174 20.4106 68.2841C20.8641 68.4677 20.7669 68.7376 21.0369 69.0076C21.6631 69.0076 21.3068 70.8972 21.8467 70.8972C22.3866 71.4371 23.65 70.4437 23.9199 71.0808C24.3734 71.0808 24.7298 71.5343 24.8161 71.8043C24.9025 72.0742 24.5462 72.3442 24.5462 72.7005C24.5462 72.7005 24.0063 73.5103 24.0927 73.6939C24.8161 74.8601 22.0195 74.1474 22.8293 73.5104C22.8293 73.2404 22.8293 73.0568 22.9157 72.7869C22.1059 72.7869 22.7321 74.3202 22.0195 74.3202C22.0195 74.3202 21.8359 74.4066 21.8359 74.5038C21.296 74.4174 22.0195 75.5836 21.3824 74.5901C20.6589 73.5104 19.9355 71.977 20.389 70.6273C20.4754 70.271 20.389 69.7311 20.4754 69.2775C19.9355 69.2775 19.9355 70.9944 19.9355 71.4371C19.9355 72.3334 18.4021 69.9902 18.3158 69.8174C17.8622 69.1912 17.1496 68.4677 16.6961 67.8306C16.0698 68.1869 18.6829 71.07 19.1256 71.6207C19.6655 72.3442 19.5791 72.247 18.8557 72.0742C18.3158 72.0742 17.3223 72.0742 16.966 71.8907C16.6961 72.5169 19.3092 72.4306 19.7627 72.7005C19.9463 73.2404 20.5725 74.5038 20.9289 74.8601C21.0153 75.3136 21.5552 74.8601 20.9289 75.4864C20.3026 76.1127 19.3092 75.4 18.8557 75.5728C17.9594 75.5728 20.3026 76.3826 19.3092 76.5662C19.0392 76.6526 19.2228 76.6526 18.8557 76.7497C18.4021 76.9333 18.7693 76.6634 18.1322 76.9333C17.8622 77.1169 17.236 78.0995 17.4087 78.0995C16.8688 77.9159 15.9618 77.0197 15.9618 76.3826L16.0158 76.3934Z" fill="#869A8F"/>
<path d="M62.3277 75.67C63.7747 75.67 65.1244 76.1236 66.5605 76.1236C65.1136 77.2034 60.3409 78.7367 60.7944 76.3071C60.8808 75.8536 62.0578 75.6808 62.3277 75.6808V75.67Z" fill="#FCEE1F"/>
<path d="M57.0154 77.4735C56.8319 77.4735 56.4755 77.2035 56.3892 77.1171C56.3892 74.8604 57.8361 74.3205 59.3586 73.1543C59.6286 72.9707 59.7149 72.6144 60.0821 72.6144C59.7257 73.2407 59.3586 74.0613 59.1858 74.6876C58.8295 75.681 58.4624 77.4843 57.0262 77.4843L57.0154 77.4735Z" fill="#FCEE1F"/>
<path d="M69.7139 76.8473C68.8176 77.2036 66.5608 77.3872 66.5608 77.2036C66.1073 76.8473 66.1073 77.02 66.5608 76.7501C67.6406 76.1238 68.6341 75.4867 70.5237 75.4004C71.4199 75.314 72.057 75.4867 72.6833 75.314C71.9598 75.8539 70.3401 76.7609 69.7139 76.8473Z" fill="#FCEE1F"/>
<path d="M59.9854 75.8537C59.0892 75.8537 59.899 74.3204 60.0718 73.9641C60.8817 72.9706 61.8751 72.1608 62.8685 71.351C61.7887 72.5171 61.8751 75.8537 60.0718 75.8537H59.9854Z" fill="#FCEE1F"/>
<path d="M66.2046 75.767C66.7445 75.767 68.0942 74.9571 68.6341 74.6872C68.7205 74.6872 69.5304 74.7736 69.8003 74.8708C69.2604 75.4107 67.3708 75.767 66.8309 75.767H66.2046Z" fill="#FCEE1F"/>
<path d="M63.9476 75.0437C63.764 75.0437 63.4941 74.0502 64.034 74.0502C64.3903 73.6939 67.3706 74.2338 68.364 74.2338C67.5541 75.0437 64.4011 76.0371 63.9476 75.0437Z" fill="#FCEE1F"/>
<path d="M75.7613 72.2474C74.8651 73.4136 71.4313 75.8539 70.0816 74.5042C69.8116 74.2342 69.898 73.8779 70.2652 73.6943C70.8051 73.338 71.5285 72.9708 72.8783 72.7009C73.8717 72.4309 74.7679 72.6145 75.7613 72.2474Z" fill="#FCEE1F"/>
<path d="M63.0513 73.9637C61.8852 73.0675 64.0447 70.9943 64.7682 70.2708C64.7682 70.2708 64.4983 71.9877 64.4983 72.1605C64.3147 72.9703 63.9584 73.9637 63.0513 73.9637Z" fill="#FCEE1F"/>
<path d="M70.1676 72.0742C70.6211 72.0742 70.9775 72.0742 71.3338 71.9878C70.7939 72.6141 66.1076 74.6009 66.0212 73.154C65.5677 71.3507 69.1742 72.0742 70.1676 72.0742Z" fill="#FCEE1F"/>
<path d="M11.6856 72.16C11.502 72.16 11.3292 71.2637 11.5992 71.2637C11.9555 71.0802 12.2255 71.0802 12.5926 70.8102C12.9489 70.4539 12.8625 69.644 12.409 69.4605C12.409 69.007 10.7893 69.1905 10.4222 69.1905C9.61234 69.007 8.43536 68.6506 8.97526 67.4736C9.33159 67.2037 10.8649 66.5774 10.8649 65.8539C10.4114 65.4004 9.60154 64.7741 9.24521 64.2342C9.15883 63.608 9.06164 62.8845 9.51516 62.3446C9.69873 62.3446 10.1414 61.8047 10.325 61.9883C10.6813 61.9883 11.0485 62.0746 11.4912 62.0746C11.8475 62.7009 12.7546 64.4178 13.6508 63.9643C13.9207 63.9643 14.2771 63.338 14.817 63.338C15.8104 63.338 16.2639 64.2342 16.8902 64.8713C17.4301 65.1413 16.8902 65.7676 17.2465 66.0375C16.6202 66.0375 15.0869 66.3938 15.0869 67.0309C14.9034 67.0309 14.6334 67.3873 14.547 67.3873C14.0935 67.7436 14.547 67.2037 14.0935 67.2037C14.0935 66.3075 13.8236 65.4004 14.0935 64.407C13.7372 63.3272 13.64 66.4802 13.64 66.4802C13.9963 67.56 13.1001 66.4802 12.8301 66.2103C12.0203 65.314 11.0269 63.9535 10.4006 62.9709C9.67713 63.3272 12.7438 66.8474 13.37 67.3873C12.8301 67.4736 11.4804 67.5708 10.9405 67.3873C10.8541 67.6572 10.7569 67.7436 11.0269 67.7436C11.0269 67.7436 13.8236 68.0999 14.0935 68.0999V68.8234C14.0935 70.0868 14.7198 68.737 14.7198 69.7196C14.7198 70.022 14.8098 70.2919 14.9897 70.5295C14.1799 70.5295 14.4498 71.0694 14.9034 71.0694C15.7132 71.0694 14.9034 71.7928 14.9034 71.9656C15.6268 71.9656 15.0869 72.3219 14.817 72.5055C15.0869 73.4989 13.6508 73.0454 13.1973 73.0454C12.6574 72.959 12.0203 72.1492 11.664 72.1492L11.6856 72.16Z" fill="#869A8F"/>
<path d="M65.481 72.2468C64.0341 71.5234 66.4744 69.0074 67.1979 68.4567C67.1979 68.9102 66.4744 71.7933 66.3016 71.9661C66.2153 71.9661 65.4918 72.4196 65.4918 72.236L65.481 72.2468Z" fill="#FCEE1F"/>
<path d="M75.0371 70.0011C76.0305 69.7311 76.5704 69.4612 77.3803 69.2776C77.4667 69.7311 73.3202 73.424 72.7803 71.8043C72.7803 71.5344 72.1541 70.9081 73.5038 70.3574C74.8536 69.8175 74.4 70.1738 75.0371 70.0011Z" fill="#FCEE1F"/>
<path d="M74.8535 68.554C74.7671 68.3705 75.6633 67.2043 76.3868 66.9343C77.1102 66.578 77.6501 66.4808 78.3736 66.3081C78.8271 66.3081 79.367 66.1245 79.8205 65.9517C78.7407 67.3987 78.1036 68.5648 76.5811 68.6512C76.2248 68.8348 76.1276 68.9212 75.5013 68.8348C74.875 68.8348 74.9614 68.7484 74.875 68.5648L74.8535 68.554Z" fill="#FCEE1F"/>
<path d="M71.9711 69.8179C72.6946 69.8179 73.3209 69.8179 73.958 69.7315C72.1547 70.6277 71.1613 71.7183 69.1852 71.3512C69.0989 71.3512 68.559 71.0813 68.9153 70.455C69.2716 70.0015 71.5284 69.7315 71.9819 69.8287L71.9711 69.8179Z" fill="#FCEE1F"/>
<path d="M67.8241 70.5405C67.3705 70.5405 67.4677 70.2705 67.4677 69.817C67.4677 68.6508 68.8175 67.4738 69.5409 66.7504C69.0874 67.8302 68.7311 68.91 68.7311 70.0869C68.3748 70.4433 67.9212 70.8104 67.9212 70.5405H67.8349H67.8241Z" fill="#FCEE1F"/>
<path d="M76.2037 65.8544C75.4802 66.5779 71.7009 70.8971 70.5239 69.191C70.5239 68.1976 72.6835 67.7441 73.3206 67.6577C74.0441 67.4741 75.4802 66.5779 76.2037 65.8544Z" fill="#FCEE1F"/>
<path d="M76.3877 65.3148C76.3877 63.8679 77.7374 63.2416 78.9144 63.2416C79.7243 63.2416 80.4477 62.6153 81.1712 62.3453C80.0914 63.6951 78.6445 66.5781 76.3985 65.3148H76.3877Z" fill="#FCEE1F"/>
<path d="M69.8114 69.0073C68.3645 68.2838 72.241 64.4073 72.9644 63.6946C73.148 63.8782 71.7983 66.4913 71.7011 66.7613C71.5175 67.2148 70.9776 68.6509 69.8114 69.0181V69.0073Z" fill="#FCEE1F"/>
<path d="M72.2407 67.388C71.4308 66.2218 73.2341 65.2284 73.5904 64.9585C73.8604 64.6021 75.1238 63.965 75.3937 63.6087C75.3937 63.8787 74.7674 65.0556 74.5839 65.3256C73.774 67.1288 73.3205 67.2152 72.2407 67.3988V67.388Z" fill="#FCEE1F"/>
<path d="M75.761 58.728C75.761 59.5379 75.761 61.5247 75.3075 62.3346C75.0375 62.9608 74.314 63.8679 73.8605 63.5007C73.2342 62.6909 73.407 62.6045 74.0441 61.3411C74.584 60.5313 75.2103 59.5379 75.761 58.728Z" fill="#FCEE1F"/>
<path d="M78.9134 62.5176C77.5637 62.5176 78.2871 60.9843 79.7233 60.7143C80.6195 60.5308 81.1702 60.358 81.7965 59.9045C81.1702 60.8007 80.0796 62.5176 78.9134 62.5176Z" fill="#FCEE1F"/>
<path d="M5.01209 54.3221C4.74214 54.3221 4.38581 53.3287 4.74214 53.1559C5.09847 52.7996 6.72897 52.2597 5.82194 51.3526C5.19566 50.7264 4.65576 50.1865 4.65576 49.193C4.65576 48.2968 5.19566 48.0269 6.0055 48.0269C6.36184 48.2968 6.63179 49.1067 6.90174 49.193C7.44164 49.8193 7.35525 48.7395 7.71159 50.0893C8.06792 51.6226 8.97495 53.5986 9.87118 54.9592C9.68762 55.6826 9.41767 55.0455 9.41767 54.7756C8.87777 53.7822 8.52144 52.7024 7.79797 51.8925C7.44164 51.2663 6.98812 50.7264 6.71817 50.1757L6.53461 50.262C6.98812 51.3418 7.79797 52.3353 8.25149 53.4151C9.69842 55.7582 9.14772 55.4883 7.35525 53.7714C7.17169 54.2249 8.52144 55.0347 8.61862 55.3911C9.15852 55.931 9.42847 56.838 9.96837 57.3779C9.69842 57.6479 10.2383 57.7342 9.7848 58.1878C9.06134 58.9112 10.5083 58.1014 9.96837 58.7277C9.96837 58.814 7.98154 59.1812 9.15852 59.1812C9.42847 59.4511 9.7848 59.3647 9.51485 59.8075C9.2449 59.4511 9.33129 59.4511 9.06134 59.7211C8.60782 60.1746 8.79139 60.3474 8.79139 60.6173C9.14772 60.6173 8.06792 61.6107 7.52802 60.8009C7.25807 61.2544 7.88435 61.6971 8.1543 61.8807C7.70079 61.8807 7.6144 61.3408 7.34446 61.3408C7.34446 61.3408 6.62099 61.1572 6.44822 60.8873C5.99471 60.6173 5.45481 58.9976 5.90832 58.4577C8.33787 56.2981 6.26466 55.661 5.01209 54.3113V54.3221Z" fill="#869A8F"/>
<path d="M77.7371 55.9425C77.0136 57.8322 78.8169 59.9054 76.8409 61.0823C74.4977 61.1687 77.5643 56.4824 77.7371 55.9425Z" fill="#FCEE1F"/>
<path d="M81.0736 57.3787C81.6135 57.1088 82.2397 56.5689 82.6069 56.1154C82.8768 56.7416 80.8036 60.7153 79.6374 59.6247C79.0975 59.0848 79.6374 58.8149 79.6374 58.6313C79.7238 58.4477 80.9008 57.5515 81.0843 57.3679L81.0736 57.3787Z" fill="#FCEE1F"/>
<path d="M4.38592 57.0222L4.11597 56.9358L4.02959 56.7522L3.84602 56.6658L3.75964 56.3851L3.47889 56.2123L3.39251 56.0287L3.20894 55.7588L3.12256 55.5752V55.4025L3.47889 55.1325V55.2189H3.66246H3.75964H3.93241H4.02959H4.11597H4.29954H4.47231L4.83944 55.3053V55.4025H4.92582H5.01221V55.4888H5.10939L5.19577 55.5752H5.28216V55.7588L5.10939 55.8452L5.01221 56.0287L4.92582 56.2123L4.83944 56.3851L4.74226 56.6658L4.65587 56.7522L4.56949 56.9358L4.47231 57.0222H4.38592Z" fill="#D2AA68"/>
<path d="M80.7169 56.7518C78.9137 56.0283 81.7103 52.8753 82.4338 51.4391C82.4338 52.9725 82.4338 57.3888 80.7169 56.7518Z" fill="#FCEE1F"/>
<path d="M12.1393 59.0081C12.1393 59.0081 11.3295 59.6343 11.6858 60.2714C12.1393 60.8977 12.2257 60.6278 12.852 60.9949C13.4783 61.4484 12.1285 62.1611 12.852 62.7982C13.6618 63.4244 13.7482 61.9019 14.1154 62.2583C14.3853 62.3446 11.9558 59.1052 12.1285 59.0189L12.1393 59.0081Z" fill="#869A8F"/>
<path d="M45.6561 86.2202L49.4462 87.7535L47.8157 88.0234L45.1162 86.6737L45.6561 86.2202Z" fill="#869A8F"/>
<path d="M38.3564 88.1955L43.8526 85.4097L44.3061 85.766L40.0733 88.3791L38.3564 88.1955Z" fill="#FCEE1F"/>
<path d="M35.7437 87.5693L40.6135 85.4097L41.1534 85.496L37.0934 87.6556H36.4671L35.7437 87.5693Z" fill="#FCEE1F"/>
<path d="M48.0854 85.4964L51.422 86.9433L52.3291 86.5762L48.269 85.2264L48.0854 85.4964Z" fill="#869A8F"/>
<path d="M56.4756 83.6932L66.3881 82.8834L65.4811 84.773L57.6418 84.6002L56.4756 83.6932Z" fill="#64908F" stroke="#231F20" stroke-width="0.0755859"/>
<path d="M60.5252 87.5687L47.9995 83.9621L48.5394 83.4222L61.0651 85.4091L60.5252 87.5687Z" fill="#64908F" stroke="#231F20" stroke-width="0.0755859"/>
<path d="M31.1543 83.8765C31.1543 83.8765 31.6942 84.8699 31.6942 85.0427C31.6942 85.2155 32.0505 86.3061 33.0439 85.9389C34.3937 85.399 33.6702 84.7727 32.6876 84.492C31.1543 84.0385 31.1543 83.8657 31.1543 83.8657V83.8765Z" stroke="#231F20" stroke-width="0.0755859"/>
<path d="M43.5828 76.0368C64.4013 76.0368 81.4297 59.0084 81.4297 38.1898C81.4297 17.3713 64.4013 0.342896 43.5828 0.342896C22.7643 0.342896 5.73584 17.3713 5.73584 38.1898C5.73584 59.0084 22.7643 76.0368 43.5828 76.0368Z" fill="#D2AA68"/>
<path d="M78.8167 55.6724C78.8167 55.586 79.7129 53.7827 79.3566 54.8625C79.3566 55.316 79.9828 58.5554 78.9031 58.9226C78.0068 59.1925 78.1796 57.6592 78.2768 57.3029C78.4603 56.9465 78.6331 56.2231 78.8167 55.6832V55.6724Z" fill="#FCEE1F"/>
<path d="M43.5829 73.4242C62.9545 73.4242 78.8168 57.5619 78.8168 38.1904C78.8168 18.8188 62.9545 2.95654 43.5829 2.95654C24.2114 2.95654 8.34912 18.808 8.34912 38.1904C8.34912 57.5727 24.2114 73.4242 43.5829 73.4242Z" fill="#03B5E1"/>
<path d="M43.5935 68.3161C60.214 68.3161 73.6875 54.8426 73.6875 38.2221C73.6875 21.6017 60.214 8.12811 43.5935 8.12811C26.9731 8.12811 13.4995 21.6017 13.4995 38.2221C13.4995 54.8426 26.9731 68.3161 43.5935 68.3161Z" fill="#EE3541"/>
<path d="M43.5828 62.4321C56.9183 62.4321 67.8243 51.5261 67.8243 38.1906C67.8243 24.8551 56.9183 13.9492 43.5828 13.9492C30.2473 13.9492 19.3413 24.8551 19.3413 38.1906C19.3413 51.5261 30.2473 62.4321 43.5828 62.4321Z" fill="#519F45"/>
<path d="M50.7961 54.9486L68.0081 62.0645L61.1622 44.8525L78.4606 37.823L60.8923 30.6207L68.0081 13.4088L50.8825 20.4382L43.4967 3.22626L36.0137 20.4382L18.8989 13.4088L26.0148 30.6207L8.88916 37.823L25.8312 44.8525L18.8989 62.0645L36.1109 54.9486L43.4967 73.5103L50.7961 54.9486Z" fill="#D2AA68"/>
<path d="M43.4966 69.8166L50.0726 53.2309L65.5677 59.6341L59.4452 44.1389L74.9403 37.8221L59.1753 31.3325L65.5677 15.8374L50.2561 22.1434L43.4966 6.55115L36.7371 22.1434L21.3283 15.8374L27.7207 31.3325L12.312 37.8221L27.548 44.1389L21.3283 59.6341L36.9206 53.2309L43.4966 69.8166Z" fill="white"/>
<path d="M47.1894 48.4589C47.0058 48.8153 46.0232 49.9923 45.4725 49.9923C45.1161 49.9923 44.3063 49.9923 44.1227 49.8087C43.6692 49.8087 44.0363 49.4524 43.3993 49.4524C41.7796 50.6185 40.1599 50.0786 38.7993 48.5561C38.2594 48.0162 37.3524 46.4829 37.266 45.6731C37.266 45.4895 36.2726 42.2501 36.2726 41.7102C36.2726 41.8938 36.0026 45.5867 36.5425 45.5867C35.6463 45.5867 35.0956 41.3539 35.0956 41.3539C34.7393 38.5572 35.6355 34.9507 37.4388 32.7047C37.2552 35.7713 37.2552 38.7408 37.9787 41.721C37.9787 42.5309 39.0585 45.6839 39.5984 45.6839C39.5984 45.8674 40.4082 46.0402 40.4082 45.4139C40.4082 44.7876 40.4082 44.6041 40.1383 43.967C39.3284 42.8008 38.8749 40.814 38.4214 39.4642C38.4214 39.2807 38.335 38.7408 38.2378 38.2009C38.0543 34.8643 38.6913 29.3681 40.9373 26.6686C41.3908 26.0423 41.4772 25.5888 41.3908 26.5822C41.3908 29.109 41.9307 31.8948 42.2871 34.3352C42.6434 36.2248 43.0969 36.4084 43.4532 38.0281C43.5396 39.0215 43.5396 40.1013 43.4532 41.1811C43.2697 42.8008 42.9133 44.5177 42.9133 46.1374C43.2697 46.7637 42.9133 46.9472 43.7232 46.9472C44.6194 46.9472 44.8894 44.1505 44.7166 43.4379C44.7166 41.8182 44.6302 39.2915 43.9068 37.8553C43.7232 37.4018 43.1833 35.9657 43.0969 35.5122C42.9134 34.8859 42.827 34.346 42.7406 34.0652C42.1143 30.9986 41.7472 26.4958 43.0969 23.6128C43.1833 23.2564 43.2805 22.7165 43.5504 22.4466C43.5504 23.2564 43.3669 24.1635 43.734 24.8761C43.734 26.863 47.5241 34.6051 47.8804 36.0521C47.8804 36.0521 48.3339 37.3154 48.4203 37.8553C48.6039 40.1121 48.6903 42.628 48.4203 44.7984C48.3339 46.0618 47.6969 47.5951 47.157 48.4913L47.1894 48.4589Z" fill="#EB2127"/>
<path d="M47.4591 48.4594C47.8154 48.0059 48.8088 45.7599 48.9924 44.4965C49.2623 42.3369 49.4459 40.1665 49.2623 38.0933C49.2623 37.5534 48.906 36.7436 48.7224 36.1065C48.3661 35.0267 48.0961 34.1197 47.729 33.2234C47.1891 32.0572 45.8394 29.077 45.8394 26.3775C46.2929 26.831 46.4656 27.4573 46.7356 27.8244C47.6318 29.3577 48.9924 30.8911 49.975 32.4244C50.8712 33.7741 52.1346 36.1173 52.2318 37.737C52.3181 39.6266 52.3181 41.2463 51.6919 42.8768C50.7956 45.0364 49.4351 47.2932 47.5454 48.643L47.4591 48.4594Z" fill="#EB2127"/>
<path d="M31.0573 67.0205C31.8671 67.0205 32.407 67.6468 32.407 68.3703C32.407 69.1801 31.7807 69.72 31.0573 69.72C30.2474 69.72 29.7075 69.0937 29.7075 68.3703C29.7075 67.6468 30.3338 67.0205 31.0573 67.0205Z" fill="#231F20"/>
<path d="M30.8737 67.2042C31.5 67.2042 32.0399 67.7441 32.0399 68.284C32.0399 68.9103 31.5 69.4502 30.8737 69.4502C30.2475 69.4502 29.7939 68.9103 29.7939 68.284C29.7939 67.7441 30.3338 67.2042 30.8737 67.2042Z" fill="#FFCB05"/>
<path d="M55.1154 67.4738C55.6553 66.9339 56.5623 66.9339 57.1022 67.4738C57.6421 68.0137 57.6421 68.9208 57.1022 69.4607C56.5623 70.0006 55.6553 70.0006 55.1154 69.4607C54.5755 68.9208 54.5755 68.0137 55.1154 67.4738Z" fill="#231F20"/>
<path d="M55.115 67.7435C55.5686 67.2899 56.2812 67.2899 56.7347 67.7435C57.1883 68.197 57.1883 68.9096 56.7347 69.3632C56.2812 69.8167 55.5686 69.8167 55.115 69.3632C54.6615 68.8233 54.6615 68.0998 55.115 67.7435Z" fill="#FFCB05"/>
<path d="M72.4243 50.716C72.4243 49.9062 73.0506 49.3663 73.7741 49.3663C74.4975 49.3663 75.1238 49.9926 75.1238 50.716C75.1238 51.5259 74.4975 52.0658 73.7741 52.0658C73.0506 52.1522 72.4243 51.5259 72.4243 50.716Z" fill="#231F20"/>
<path d="M72.5967 50.8891C72.5967 50.2628 73.0502 49.7229 73.6765 49.7229C74.3028 49.7229 74.8427 50.2628 74.8427 50.8891C74.8427 51.5154 74.3028 51.9689 73.6765 51.9689C73.0502 52.0553 72.5967 51.5154 72.5967 50.8891Z" fill="#FFCB05"/>
<path d="M72.7804 26.7443C72.2405 26.2044 72.2405 25.2974 72.7804 24.7575C73.3203 24.2176 74.2273 24.2176 74.7672 24.7575C75.3071 25.2974 75.3071 26.2044 74.7672 26.7443C74.2273 27.2842 73.3203 27.2842 72.7804 26.7443Z" fill="#231F20"/>
<path d="M73.0501 26.7451C72.5966 26.2915 72.5966 25.5789 73.0501 25.1254C73.5036 24.6718 74.2163 24.6718 74.6698 25.1254C75.1233 25.5789 75.1233 26.2915 74.6698 26.7451C74.2163 27.1986 73.5036 27.1986 73.0501 26.7451Z" fill="#FFCB05"/>
<path d="M56.1085 9.4462C55.2987 9.4462 54.7588 8.81992 54.7588 8.09645C54.7588 7.37299 55.3851 6.7467 56.1085 6.7467C56.832 6.7467 57.4583 7.37299 57.4583 8.09645C57.5447 8.81992 56.9184 9.4462 56.1085 9.4462Z" fill="#231F20"/>
<path d="M56.2917 9.26197C55.6654 9.26197 55.2119 8.80846 55.2119 8.18217C55.2119 7.55589 55.6654 7.01599 56.2917 7.01599C56.918 7.01599 57.4579 7.55589 57.4579 8.18217C57.4579 8.72207 56.918 9.26197 56.2917 9.26197Z" fill="#FFCB05"/>
<path d="M32.1374 8.99179C31.5975 9.53169 30.6904 9.53169 30.1505 8.99179C29.6106 8.45189 29.6106 7.54486 30.1505 7.00496C30.6904 6.46506 31.5975 6.46506 32.1374 7.00496C32.6773 7.63124 32.6773 8.45189 32.1374 8.99179Z" fill="#231F20"/>
<path d="M32.1371 8.80822C31.6836 9.26174 30.9709 9.26174 30.5174 8.80822C30.0639 8.35471 30.0639 7.64204 30.5174 7.18853C30.9709 6.73501 31.6836 6.73501 32.1371 7.18853C32.4934 7.64204 32.4934 8.35471 32.1371 8.80822Z" fill="#FFCB05"/>
<path d="M14.8382 25.7513C14.8382 26.5611 14.2119 27.101 13.4884 27.101C12.6786 27.101 12.1387 26.4747 12.1387 25.7513C12.1387 24.9414 12.765 24.4015 13.4884 24.4015C14.2119 24.3151 14.8382 24.9414 14.8382 25.7513Z" fill="#231F20"/>
<path d="M14.6552 25.5681C14.6552 26.1944 14.1153 26.6479 13.5754 26.6479C12.9491 26.6479 12.4092 26.1944 12.4092 25.5681C12.4092 24.9418 12.9491 24.4019 13.5754 24.4019C14.1153 24.4019 14.6552 24.9418 14.6552 25.5681Z" fill="#FFCB05"/>
<path d="M14.3849 49.7223C14.9248 50.2622 14.9248 51.1692 14.3849 51.7091C13.845 52.249 12.938 52.249 12.3981 51.7091C11.8582 51.1692 11.8582 50.2622 12.3981 49.7223C12.938 49.1824 13.845 49.1824 14.3849 49.7223Z" fill="#231F20"/>
<path d="M14.1151 49.7222C14.5686 50.1757 14.5686 50.8884 14.1151 51.3419C13.6616 51.7954 12.9489 51.7954 12.4954 51.3419C12.0419 50.8884 12.0419 50.1757 12.4954 49.7222C13.0353 49.2687 13.7588 49.2687 14.1151 49.7222Z" fill="#FFCB05"/>
<path d="M14.8388 73.4238V75.2271C14.8388 75.2271 12.582 75.2271 12.4956 74.6008C12.4956 73.9745 13.6618 73.521 14.8388 73.4346V73.4238Z" fill="#D2AA68"/>
<path d="M20.2484 83.7788L21.9653 84.7722C21.9653 84.7722 20.9719 86.5755 20.3456 86.3919C19.8057 86.122 19.8057 84.8586 20.2592 83.7788H20.2484Z" fill="#D2AA68"/>
<path d="M45.03 78.2832L43.8638 76.9335C43.8638 76.9335 45.2135 75.6701 45.667 76.0372C46.2069 76.4908 45.7534 77.4842 45.0408 78.294L45.03 78.2832Z" fill="#D2AA68"/>
<path d="M35.204 84.4164L36.7373 85.6798C36.7373 85.6798 35.4739 87.2995 34.934 87.0296C34.3078 86.6732 34.5777 85.4099 35.204 84.4164Z" fill="#D2AA68"/>
<path d="M61.7017 80.4534C61.7017 80.4534 65.3946 79.9135 67.1115 79.1036" stroke="#231F20" stroke-width="0.723465" stroke-linecap="round"/>
<path d="M63.3218 78.7362C63.3218 78.7362 67.3818 77.6564 69.3579 76.3067" stroke="#231F20" stroke-width="0.723465" stroke-linecap="round"/>
<path d="M68.4614 74.2348C68.4614 74.2348 71.4309 73.0686 73.4177 71.7081" stroke="#231F20" stroke-width="0.647879" stroke-linecap="round"/>
<path d="M71.7871 71.9767C71.7871 71.9767 74.0439 70.8105 75.9335 69.45" stroke="#231F20" stroke-width="0.647879" stroke-linecap="round"/>
<path d="M74.1304 69.7309C74.1304 69.7309 76.2036 68.921 78.0932 67.0314" stroke="#231F20" stroke-width="0.647879" stroke-linecap="round"/>
<path d="M75.9331 66.2111C76.2031 66.0275 76.743 65.8548 77.65 64.4078" stroke="#231F20" stroke-width="0.647879" stroke-linecap="round"/>
<path d="M72.5972 63.6838C72.8671 63.5003 73.407 63.3275 74.3141 61.8806" stroke="#231F20" stroke-width="0.356334" stroke-linecap="round"/>
<path d="M73.0508 63.7811C73.3207 63.5975 73.8606 63.4248 74.7677 61.9778" stroke="#231F20" stroke-width="0.356334" stroke-linecap="round"/>
<path d="M73.3208 64.0513C73.5908 63.8677 74.1306 63.6949 75.0377 62.248" stroke="#231F20" stroke-width="0.356334" stroke-linecap="round"/>
<path d="M69.3579 75.3997C69.3579 75.3997 70.4377 75.1298 72.4245 73.9528" stroke="#231F20" stroke-width="0.647879" stroke-linecap="round"/>
</g>
<path d="M108.977 39.2525C107.798 39.2525 106.704 39.0491 105.694 38.6423C104.684 38.2354 103.8 37.6672 103.043 36.9377C102.299 36.1942 101.717 35.3314 101.296 34.3494C100.875 33.3674 100.665 32.3012 100.665 31.1508C100.665 30.0004 100.868 28.9342 101.275 27.9522C101.696 26.9701 102.278 26.1144 103.022 25.3849C103.779 24.6554 104.663 24.0872 105.673 23.6803C106.683 23.2735 107.784 23.0701 108.977 23.0701C110.169 23.0701 111.271 23.2735 112.281 23.6803C113.291 24.0872 114.168 24.6554 114.911 25.3849C115.669 26.1144 116.251 26.9701 116.658 27.9522C117.079 28.9342 117.289 30.0004 117.289 31.1508C117.289 32.3012 117.079 33.3674 116.658 34.3494C116.237 35.3314 115.648 36.1942 114.89 36.9377C114.147 37.6672 113.27 38.2354 112.26 38.6423C111.25 39.0491 110.155 39.2525 108.977 39.2525ZM108.977 36.3064C109.692 36.3064 110.352 36.1802 110.955 35.9277C111.572 35.6751 112.112 35.3244 112.575 34.8755C113.038 34.4125 113.396 33.8654 113.649 33.2341C113.901 32.6028 114.027 31.9083 114.027 31.1508C114.027 30.3932 113.901 29.7058 113.649 29.0885C113.396 28.4572 113.038 27.9101 112.575 27.4471C112.112 26.9842 111.572 26.6334 110.955 26.395C110.352 26.1424 109.692 26.0162 108.977 26.0162C108.261 26.0162 107.595 26.1424 106.978 26.395C106.374 26.6334 105.841 26.9842 105.378 27.4471C104.915 27.9101 104.558 28.4572 104.305 29.0885C104.053 29.7058 103.926 30.3932 103.926 31.1508C103.926 31.9083 104.053 32.6028 104.305 33.2341C104.558 33.8654 104.915 34.4125 105.378 34.8755C105.841 35.3244 106.374 35.6751 106.978 35.9277C107.595 36.1802 108.261 36.3064 108.977 36.3064ZM125.389 39.2525C124.604 39.2525 123.874 39.1122 123.201 38.8317C122.541 38.537 122.008 38.1092 121.601 37.548L121.896 36.8957V39H118.95V23.0701H122.107V29.6988L121.623 29.0675C122.001 28.4923 122.513 28.0504 123.159 27.7417C123.818 27.4191 124.569 27.2577 125.41 27.2577C126.505 27.2577 127.494 27.5243 128.377 28.0574C129.261 28.5905 129.963 29.313 130.482 30.2249C131.001 31.1227 131.26 32.1328 131.26 33.2551C131.26 34.3634 131.001 35.3735 130.482 36.2854C129.977 37.1973 129.282 37.9198 128.399 38.4529C127.515 38.986 126.512 39.2525 125.389 39.2525ZM125.011 36.4117C125.6 36.4117 126.119 36.2784 126.568 36.0118C127.017 35.7453 127.367 35.3735 127.62 34.8965C127.872 34.4195 127.999 33.8724 127.999 33.2551C127.999 32.6379 127.872 32.0977 127.62 31.6348C127.367 31.1578 127.017 30.786 126.568 30.5195C126.119 30.2389 125.6 30.0986 125.011 30.0986C124.449 30.0986 123.944 30.2319 123.495 30.4984C123.06 30.765 122.717 31.1368 122.464 31.6137C122.226 32.0907 122.107 32.6379 122.107 33.2551C122.107 33.8724 122.226 34.4195 122.464 34.8965C122.717 35.3735 123.06 35.7453 123.495 36.0118C123.944 36.2784 124.449 36.4117 125.011 36.4117ZM134.271 43.6296C133.935 43.6296 133.605 43.6015 133.282 43.5454C132.974 43.4893 132.7 43.3981 132.462 43.2718V40.6835C132.658 40.7396 132.89 40.7887 133.156 40.8308C133.423 40.8729 133.668 40.8939 133.893 40.8939C134.51 40.8939 134.952 40.7466 135.218 40.452C135.485 40.1714 135.702 39.8488 135.871 39.484L136.649 37.6953L136.607 40.3257L131.557 27.5103H134.945L138.291 36.6221H137.028L140.374 27.5103H143.762L138.838 40.0732C138.529 40.8588 138.15 41.5182 137.702 42.0513C137.253 42.5844 136.741 42.9772 136.165 43.2297C135.604 43.4963 134.973 43.6296 134.271 43.6296ZM150.05 39.2525C148.829 39.2525 147.77 38.986 146.872 38.4529C145.974 37.9057 145.28 37.1762 144.789 36.2643C144.298 35.3525 144.052 34.3424 144.052 33.2341C144.052 32.0837 144.305 31.0596 144.81 30.1617C145.329 29.2639 146.023 28.5554 146.893 28.0363C147.763 27.5173 148.745 27.2577 149.839 27.2577C150.751 27.2577 151.558 27.405 152.259 27.6997C152.961 27.9802 153.55 28.3801 154.027 28.8991C154.518 29.4182 154.89 30.0214 155.142 30.7089C155.395 31.3823 155.521 32.1188 155.521 32.9184C155.521 33.1429 155.507 33.3674 155.479 33.5918C155.465 33.8023 155.43 33.9846 155.374 34.139H146.767V31.8242H153.585L152.091 32.9184C152.231 32.3152 152.224 31.7821 152.07 31.3191C151.916 30.8421 151.642 30.4704 151.249 30.2038C150.87 29.9232 150.401 29.783 149.839 29.783C149.292 29.783 148.822 29.9162 148.429 30.1828C148.037 30.4493 147.742 30.8421 147.546 31.3612C147.349 31.8803 147.272 32.5116 147.314 33.2551C147.258 33.9005 147.335 34.4686 147.546 34.9597C147.756 35.4507 148.079 35.8365 148.514 36.117C148.949 36.3836 149.475 36.5169 150.092 36.5169C150.653 36.5169 151.13 36.4046 151.523 36.1802C151.93 35.9557 152.245 35.6471 152.47 35.2543L154.995 36.4537C154.771 37.0149 154.413 37.5059 153.922 37.9268C153.445 38.3477 152.877 38.6773 152.217 38.9158C151.558 39.1403 150.835 39.2525 150.05 39.2525ZM156.959 39V23.0701H160.115V33.2762L158.937 32.8974L164.009 27.5103H167.902L163.735 32.1398L167.881 39H164.303L160.831 33.171L162.662 32.708L159.147 36.5379L160.115 34.7071V39H156.959ZM174.403 39.1263C173.014 39.1263 171.934 38.7545 171.162 38.011C170.404 37.2534 170.026 36.2012 170.026 34.8544V30.2459H168.09V27.5103H168.195C168.784 27.5103 169.233 27.363 169.542 27.0683C169.864 26.7737 170.026 26.3318 170.026 25.7426V24.9009H173.182V27.5103H175.876V30.2459H173.182V34.644C173.182 35.0368 173.252 35.3665 173.393 35.633C173.533 35.8856 173.75 36.075 174.045 36.2012C174.34 36.3275 174.704 36.3906 175.139 36.3906C175.237 36.3906 175.35 36.3836 175.476 36.3696C175.602 36.3555 175.735 36.3415 175.876 36.3275V39C175.665 39.0281 175.427 39.0561 175.16 39.0842C174.894 39.1122 174.641 39.1263 174.403 39.1263ZM177.305 39V23.0701H180.461V39H177.305ZM187.569 39.2525C186.657 39.2525 185.85 39.1122 185.149 38.8317C184.447 38.537 183.851 38.1302 183.36 37.6111C182.883 37.0921 182.518 36.4958 182.266 35.8224C182.013 35.135 181.887 34.3915 181.887 33.5918C181.887 33.3533 181.894 33.1289 181.908 32.9184C181.936 32.708 181.978 32.5256 182.034 32.3713H190.641V34.6861H183.823L185.317 33.5918C185.177 34.181 185.184 34.7141 185.338 35.1911C185.493 35.6681 185.766 36.0469 186.159 36.3275C186.552 36.594 187.022 36.7273 187.569 36.7273C188.116 36.7273 188.586 36.594 188.979 36.3275C189.372 36.0609 189.666 35.6681 189.863 35.149C190.073 34.63 190.15 33.9987 190.094 33.2551C190.15 32.6098 190.073 32.0416 189.863 31.5506C189.652 31.0596 189.329 30.6808 188.895 30.4143C188.46 30.1337 187.934 29.9934 187.316 29.9934C186.755 29.9934 186.271 30.1056 185.864 30.3301C185.471 30.5545 185.163 30.8632 184.938 31.256L182.413 30.0565C182.652 29.4954 183.009 29.0043 183.486 28.5835C183.963 28.1626 184.532 27.8399 185.191 27.6155C185.85 27.377 186.573 27.2577 187.358 27.2577C188.579 27.2577 189.638 27.5313 190.536 28.0784C191.434 28.6115 192.128 29.334 192.619 30.2459C193.11 31.1578 193.356 32.1679 193.356 33.2762C193.356 34.4125 193.103 35.4366 192.598 36.3485C192.093 37.2464 191.399 37.9548 190.515 38.4739C189.645 38.993 188.663 39.2525 187.569 39.2525ZM194.794 39V27.5103H197.74V30.267L197.529 29.8671C197.782 28.8991 198.196 28.2468 198.771 27.9101C199.36 27.5594 200.055 27.384 200.854 27.384H201.528V30.1197H200.539C199.767 30.1197 199.143 30.3581 198.666 30.8351C198.189 31.2981 197.95 31.9574 197.95 32.8132V39H194.794ZM202.49 39V27.5103H205.647V39H202.49ZM202.49 26.4791V23.3226H205.647V26.4791H202.49ZM207.536 39V27.5103H210.482V29.783L210.313 29.2779C210.58 28.5905 211.008 28.0854 211.597 27.7628C212.2 27.4261 212.902 27.2577 213.701 27.2577C214.571 27.2577 215.329 27.4401 215.974 27.8049C216.633 28.1696 217.145 28.6817 217.51 29.341C217.875 29.9864 218.057 30.7439 218.057 31.6137V39H214.901V32.2871C214.901 31.8382 214.81 31.4524 214.627 31.1297C214.459 30.8071 214.213 30.5545 213.891 30.3722C213.582 30.1898 213.217 30.0986 212.797 30.0986C212.39 30.0986 212.025 30.1898 211.702 30.3722C211.38 30.5545 211.127 30.8071 210.945 31.1297C210.776 31.4524 210.692 31.8382 210.692 32.2871V39H207.536ZM223.304 39V23.3226H228.418C230.115 23.3226 231.588 23.6593 232.837 24.3327C234.085 25.0061 235.053 25.932 235.741 27.1104C236.428 28.2889 236.772 29.6357 236.772 31.1508C236.772 32.6659 236.428 34.0197 235.741 35.2122C235.053 36.3906 234.085 37.3165 232.837 37.9899C231.588 38.6633 230.115 39 228.418 39H223.304ZM226.566 36.1591H228.502C229.526 36.1591 230.41 35.9557 231.153 35.5489C231.897 35.128 232.472 34.5458 232.879 33.8023C233.3 33.0447 233.51 32.1609 233.51 31.1508C233.51 30.1267 233.3 29.2428 232.879 28.4993C232.472 27.7558 231.897 27.1806 231.153 26.7737C230.41 26.3669 229.526 26.1635 228.502 26.1635H226.566V36.1591ZM238.208 39V27.5103H241.365V39H238.208ZM238.208 26.4791V23.3226H241.365V26.4791H238.208ZM246.81 39.2525C245.982 39.2525 245.267 39.1192 244.664 38.8527C244.06 38.5861 243.597 38.2074 243.275 37.7163C242.952 37.2113 242.791 36.6151 242.791 35.9277C242.791 35.2823 242.938 34.7141 243.233 34.2231C243.527 33.7181 243.976 33.2972 244.579 32.9605C245.197 32.6238 245.961 32.3853 246.873 32.245L250.387 31.6769V33.9917L247.441 34.5177C246.992 34.6019 246.649 34.7492 246.41 34.9597C246.172 35.1561 246.052 35.4437 246.052 35.8224C246.052 36.1732 246.186 36.4467 246.452 36.6431C246.719 36.8395 247.049 36.9377 247.441 36.9377C247.96 36.9377 248.416 36.8255 248.809 36.601C249.202 36.3766 249.504 36.075 249.714 35.6962C249.938 35.3034 250.051 34.8755 250.051 34.4125V31.4243C250.051 30.9894 249.875 30.6247 249.525 30.3301C249.188 30.0355 248.725 29.8882 248.136 29.8882C247.575 29.8882 247.077 30.0425 246.642 30.3511C246.221 30.6598 245.912 31.0666 245.716 31.5717L243.191 30.3722C243.415 29.7268 243.773 29.1727 244.264 28.7097C244.755 28.2468 245.344 27.889 246.031 27.6365C246.719 27.384 247.469 27.2577 248.283 27.2577C249.251 27.2577 250.107 27.4331 250.85 27.7838C251.594 28.1345 252.169 28.6256 252.576 29.2569C252.997 29.8741 253.207 30.5966 253.207 31.4243V39H250.261V37.1482L250.977 37.0219C250.64 37.527 250.268 37.9478 249.861 38.2845C249.454 38.6072 248.999 38.8457 248.493 39C247.988 39.1683 247.427 39.2525 246.81 39.2525ZM263.792 43.2087V36.8957L264.297 37.548C263.904 38.1092 263.371 38.537 262.698 38.8317C262.025 39.1122 261.295 39.2525 260.509 39.2525C259.387 39.2525 258.384 38.986 257.5 38.4529C256.616 37.9198 255.915 37.1973 255.396 36.2854C254.891 35.3735 254.638 34.3634 254.638 33.2551C254.638 32.1328 254.898 31.1227 255.417 30.2249C255.936 29.313 256.637 28.5905 257.521 28.0574C258.405 27.5243 259.394 27.2577 260.488 27.2577C261.33 27.2577 262.074 27.4191 262.719 27.7417C263.378 28.0504 263.897 28.4923 264.276 29.0675L264.003 29.6988V27.5103H266.949V43.2087H263.792ZM260.888 36.4117C261.463 36.4117 261.968 36.2784 262.403 36.0118C262.838 35.7453 263.175 35.3735 263.413 34.8965C263.666 34.4195 263.792 33.8724 263.792 33.2551C263.792 32.6379 263.666 32.0907 263.413 31.6137C263.175 31.1368 262.838 30.765 262.403 30.4984C261.968 30.2319 261.463 30.0986 260.888 30.0986C260.313 30.0986 259.794 30.2389 259.331 30.5195C258.882 30.786 258.531 31.1578 258.279 31.6348C258.026 32.0977 257.9 32.6379 257.9 33.2551C257.9 33.8724 258.026 34.4195 258.279 34.8965C258.531 35.3735 258.882 35.7453 259.331 36.0118C259.794 36.2784 260.313 36.4117 260.888 36.4117ZM268.84 39V27.5103H271.786V29.783L271.617 29.2779C271.884 28.5905 272.312 28.0854 272.901 27.7628C273.504 27.4261 274.206 27.2577 275.005 27.2577C275.875 27.2577 276.633 27.4401 277.278 27.8049C277.937 28.1696 278.449 28.6817 278.814 29.341C279.179 29.9864 279.361 30.7439 279.361 31.6137V39H276.205V32.2871C276.205 31.8382 276.114 31.4524 275.931 31.1297C275.763 30.8071 275.517 30.5545 275.195 30.3722C274.886 30.1898 274.521 30.0986 274.1 30.0986C273.694 30.0986 273.329 30.1898 273.006 30.3722C272.684 30.5545 272.431 30.8071 272.249 31.1297C272.08 31.4524 271.996 31.8382 271.996 32.2871V39H268.84ZM286.719 39.2525C285.582 39.2525 284.544 38.993 283.604 38.4739C282.678 37.9548 281.935 37.2464 281.374 36.3485C280.827 35.4366 280.553 34.4055 280.553 33.2551C280.553 32.0907 280.827 31.0596 281.374 30.1617C281.935 29.2639 282.678 28.5554 283.604 28.0363C284.544 27.5173 285.582 27.2577 286.719 27.2577C287.855 27.2577 288.886 27.5173 289.812 28.0363C290.738 28.5554 291.475 29.2639 292.022 30.1617C292.583 31.0596 292.863 32.0907 292.863 33.2551C292.863 34.4055 292.583 35.4366 292.022 36.3485C291.475 37.2464 290.738 37.9548 289.812 38.4739C288.886 38.993 287.855 39.2525 286.719 39.2525ZM286.719 36.4117C287.294 36.4117 287.792 36.2784 288.213 36.0118C288.648 35.7453 288.984 35.3735 289.223 34.8965C289.475 34.4195 289.602 33.8724 289.602 33.2551C289.602 32.6379 289.475 32.0977 289.223 31.6348C288.984 31.1578 288.648 30.786 288.213 30.5195C287.792 30.2389 287.294 30.0986 286.719 30.0986C286.144 30.0986 285.639 30.2389 285.204 30.5195C284.769 30.786 284.425 31.1578 284.173 31.6348C283.934 32.0977 283.815 32.6379 283.815 33.2551C283.815 33.8724 283.934 34.4195 284.173 34.8965C284.425 35.3735 284.769 35.7453 285.204 36.0118C285.639 36.2784 286.144 36.4117 286.719 36.4117ZM298.805 39.2525C297.543 39.2525 296.442 38.9579 295.502 38.3687C294.576 37.7654 293.944 36.9588 293.608 35.9487L295.923 34.8544C296.217 35.4717 296.617 35.9557 297.122 36.3064C297.627 36.6572 298.188 36.8325 298.805 36.8325C299.254 36.8325 299.598 36.7413 299.837 36.559C300.075 36.3766 300.194 36.1241 300.194 35.8014C300.194 35.633 300.152 35.4928 300.068 35.3805C299.984 35.2543 299.858 35.142 299.689 35.0438C299.521 34.9456 299.311 34.8614 299.058 34.7913L297.101 34.2442C296.161 33.9776 295.439 33.5497 294.933 32.9605C294.428 32.3573 294.176 31.6488 294.176 30.8351C294.176 30.1197 294.358 29.4954 294.723 28.9623C295.088 28.4292 295.6 28.0153 296.259 27.7207C296.919 27.4121 297.676 27.2577 298.532 27.2577C299.654 27.2577 300.636 27.5243 301.478 28.0574C302.334 28.5765 302.937 29.313 303.288 30.267L300.952 31.3612C300.784 30.8842 300.475 30.5054 300.026 30.2249C299.591 29.9303 299.093 29.783 298.532 29.783C298.125 29.783 297.802 29.8671 297.564 30.0355C297.339 30.2038 297.227 30.4353 297.227 30.7299C297.227 30.8842 297.269 31.0245 297.353 31.1508C297.438 31.277 297.571 31.3893 297.753 31.4875C297.95 31.5857 298.188 31.6769 298.469 31.761L300.3 32.3082C301.254 32.5888 301.983 33.0166 302.488 33.5918C302.993 34.153 303.246 34.8474 303.246 35.6751C303.246 36.3906 303.056 37.0149 302.677 37.548C302.313 38.0811 301.801 38.502 301.141 38.8106C300.482 39.1052 299.703 39.2525 298.805 39.2525ZM310.246 39.1263C308.857 39.1263 307.777 38.7545 307.005 38.011C306.247 37.2534 305.869 36.2012 305.869 34.8544V30.2459H303.933V27.5103H304.038C304.627 27.5103 305.076 27.363 305.385 27.0683C305.707 26.7737 305.869 26.3318 305.869 25.7426V24.9009H309.025V27.5103H311.719V30.2459H309.025V34.644C309.025 35.0368 309.095 35.3665 309.236 35.633C309.376 35.8856 309.593 36.075 309.888 36.2012C310.183 36.3275 310.547 36.3906 310.982 36.3906C311.08 36.3906 311.193 36.3836 311.319 36.3696C311.445 36.3555 311.578 36.3415 311.719 36.3275V39C311.508 39.0281 311.27 39.0561 311.003 39.0842C310.737 39.1122 310.484 39.1263 310.246 39.1263ZM313.148 39V27.5103H316.304V39H313.148ZM313.148 26.4791V23.3226H316.304V26.4791H313.148ZM318.193 39V23.0701H321.35V33.2762L320.171 32.8974L325.243 27.5103H329.136L324.969 32.1398L329.115 39H325.537L322.065 33.171L323.896 32.708L320.382 36.5379L321.35 34.7071V39H318.193ZM333.659 39.2525C332.831 39.2525 332.116 39.1192 331.512 38.8527C330.909 38.5861 330.446 38.2074 330.123 37.7163C329.801 37.2113 329.639 36.6151 329.639 35.9277C329.639 35.2823 329.787 34.7141 330.081 34.2231C330.376 33.7181 330.825 33.2972 331.428 32.9605C332.045 32.6238 332.81 32.3853 333.722 32.245L337.236 31.6769V33.9917L334.29 34.5177C333.841 34.6019 333.497 34.7492 333.259 34.9597C333.02 35.1561 332.901 35.4437 332.901 35.8224C332.901 36.1732 333.034 36.4467 333.301 36.6431C333.568 36.8395 333.897 36.9377 334.29 36.9377C334.809 36.9377 335.265 36.8255 335.658 36.601C336.051 36.3766 336.352 36.075 336.563 35.6962C336.787 35.3034 336.899 34.8755 336.899 34.4125V31.4243C336.899 30.9894 336.724 30.6247 336.373 30.3301C336.037 30.0355 335.574 29.8882 334.984 29.8882C334.423 29.8882 333.925 30.0425 333.49 30.3511C333.07 30.6598 332.761 31.0666 332.564 31.5717L330.039 30.3722C330.264 29.7268 330.621 29.1727 331.112 28.7097C331.604 28.2468 332.193 27.889 332.88 27.6365C333.568 27.384 334.318 27.2577 335.132 27.2577C336.1 27.2577 336.956 27.4331 337.699 27.7838C338.443 28.1345 339.018 28.6256 339.425 29.2569C339.846 29.8741 340.056 30.5966 340.056 31.4243V39H337.11V37.1482L337.825 37.0219C337.489 37.527 337.117 37.9478 336.71 38.2845C336.303 38.6072 335.847 38.8457 335.342 39C334.837 39.1683 334.276 39.2525 333.659 39.2525ZM101.128 66V50.3226H107.146C108.226 50.3226 109.18 50.512 110.008 50.8908C110.85 51.2696 111.509 51.8307 111.986 52.5743C112.463 53.3178 112.702 54.2367 112.702 55.331C112.702 56.3972 112.456 57.302 111.965 58.0456C111.488 58.7891 110.829 59.3573 109.987 59.7501C109.159 60.1289 108.212 60.3183 107.146 60.3183H104.389V66H101.128ZM104.389 57.4774H107.167C107.63 57.4774 108.03 57.3862 108.367 57.2038C108.703 57.0214 108.963 56.7689 109.145 56.4463C109.342 56.1236 109.44 55.7518 109.44 55.331C109.44 54.8961 109.342 54.5173 109.145 54.1946C108.963 53.8719 108.703 53.6194 108.367 53.437C108.03 53.2547 107.63 53.1635 107.167 53.1635H104.389V57.4774ZM117.061 66.2525C116.233 66.2525 115.517 66.1192 114.914 65.8527C114.311 65.5861 113.848 65.2074 113.525 64.7163C113.203 64.2113 113.041 63.6151 113.041 62.9277C113.041 62.2823 113.189 61.7141 113.483 61.2231C113.778 60.7181 114.227 60.2972 114.83 59.9605C115.447 59.6238 116.212 59.3853 117.124 59.245L120.638 58.6769V60.9917L117.692 61.5177C117.243 61.6019 116.899 61.7492 116.661 61.9597C116.422 62.1561 116.303 62.4437 116.303 62.8224C116.303 63.1732 116.436 63.4467 116.703 63.6431C116.969 63.8395 117.299 63.9377 117.692 63.9377C118.211 63.9377 118.667 63.8255 119.06 63.601C119.452 63.3766 119.754 63.075 119.965 62.6962C120.189 62.3034 120.301 61.8755 120.301 61.4125V58.4243C120.301 57.9894 120.126 57.6247 119.775 57.3301C119.438 57.0355 118.975 56.8882 118.386 56.8882C117.825 56.8882 117.327 57.0425 116.892 57.3511C116.471 57.6598 116.163 58.0666 115.966 58.5717L113.441 57.3722C113.665 56.7268 114.023 56.1727 114.514 55.7097C115.005 55.2468 115.594 54.889 116.282 54.6365C116.969 54.384 117.72 54.2577 118.534 54.2577C119.502 54.2577 120.357 54.4331 121.101 54.7838C121.844 55.1345 122.42 55.6256 122.826 56.2569C123.247 56.8741 123.458 57.5966 123.458 58.4243V66H120.512V64.1482L121.227 64.0219C120.89 64.527 120.519 64.9478 120.112 65.2845C119.705 65.6072 119.249 65.8457 118.744 66C118.239 66.1683 117.678 66.2525 117.061 66.2525ZM129.855 66.2525C128.593 66.2525 127.491 65.9579 126.551 65.3687C125.625 64.7654 124.994 63.9588 124.657 62.9487L126.972 61.8544C127.267 62.4717 127.667 62.9557 128.172 63.3064C128.677 63.6572 129.238 63.8325 129.855 63.8325C130.304 63.8325 130.648 63.7413 130.886 63.559C131.125 63.3766 131.244 63.1241 131.244 62.8014C131.244 62.633 131.202 62.4928 131.118 62.3805C131.034 62.2543 130.907 62.142 130.739 62.0438C130.571 61.9456 130.36 61.8614 130.108 61.7913L128.151 61.2442C127.211 60.9776 126.488 60.5497 125.983 59.9605C125.478 59.3573 125.226 58.6488 125.226 57.8351C125.226 57.1197 125.408 56.4954 125.773 55.9623C126.137 55.4292 126.649 55.0153 127.309 54.7207C127.968 54.4121 128.726 54.2577 129.582 54.2577C130.704 54.2577 131.686 54.5243 132.528 55.0574C133.383 55.5765 133.987 56.313 134.337 57.267L132.002 58.3612C131.833 57.8842 131.525 57.5054 131.076 57.2249C130.641 56.9303 130.143 56.783 129.582 56.783C129.175 56.783 128.852 56.8671 128.614 57.0355C128.389 57.2038 128.277 57.4353 128.277 57.7299C128.277 57.8842 128.319 58.0245 128.403 58.1508C128.487 58.277 128.621 58.3893 128.803 58.4875C128.999 58.5857 129.238 58.6769 129.518 58.761L131.349 59.3082C132.303 59.5888 133.033 60.0166 133.538 60.5918C134.043 61.153 134.295 61.8474 134.295 62.6751C134.295 63.3906 134.106 64.0149 133.727 64.548C133.362 65.0811 132.85 65.502 132.191 65.8106C131.532 66.1052 130.753 66.2525 129.855 66.2525ZM135.761 70.2087V54.5103H138.707V56.6988L138.433 56.0675C138.812 55.4923 139.324 55.0504 139.97 54.7417C140.629 54.4191 141.38 54.2577 142.221 54.2577C143.316 54.2577 144.305 54.5243 145.188 55.0574C146.072 55.5905 146.774 56.313 147.293 57.2249C147.812 58.1227 148.071 59.1328 148.071 60.2551C148.071 61.3634 147.812 62.3735 147.293 63.2854C146.788 64.1973 146.093 64.9198 145.209 65.4529C144.326 65.986 143.323 66.2525 142.2 66.2525C141.415 66.2525 140.685 66.1122 140.012 65.8317C139.352 65.537 138.819 65.1092 138.412 64.548L138.917 63.8957V70.2087H135.761ZM141.821 63.4117C142.411 63.4117 142.93 63.2784 143.379 63.0118C143.828 62.7453 144.178 62.3735 144.431 61.8965C144.683 61.4195 144.81 60.8724 144.81 60.2551C144.81 59.6379 144.683 59.0977 144.431 58.6348C144.178 58.1578 143.828 57.786 143.379 57.5195C142.93 57.2389 142.411 57.0986 141.821 57.0986C141.26 57.0986 140.755 57.2319 140.306 57.4984C139.871 57.765 139.528 58.1368 139.275 58.6137C139.037 59.0907 138.917 59.6379 138.917 60.2551C138.917 60.8724 139.037 61.4195 139.275 61.8965C139.528 62.3735 139.871 62.7453 140.306 63.0118C140.755 63.2784 141.26 63.4117 141.821 63.4117ZM155.202 66.2525C154.066 66.2525 153.027 65.993 152.088 65.4739C151.162 64.9548 150.418 64.2464 149.857 63.3485C149.31 62.4366 149.036 61.4055 149.036 60.2551C149.036 59.0907 149.31 58.0596 149.857 57.1617C150.418 56.2639 151.162 55.5554 152.088 55.0363C153.027 54.5173 154.066 54.2577 155.202 54.2577C156.338 54.2577 157.369 54.5173 158.295 55.0363C159.221 55.5554 159.958 56.2639 160.505 57.1617C161.066 58.0596 161.347 59.0907 161.347 60.2551C161.347 61.4055 161.066 62.4366 160.505 63.3485C159.958 64.2464 159.221 64.9548 158.295 65.4739C157.369 65.993 156.338 66.2525 155.202 66.2525ZM155.202 63.4117C155.777 63.4117 156.275 63.2784 156.696 63.0118C157.131 62.7453 157.468 62.3735 157.706 61.8965C157.959 61.4195 158.085 60.8724 158.085 60.2551C158.085 59.6379 157.959 59.0977 157.706 58.6348C157.468 58.1578 157.131 57.786 156.696 57.5195C156.275 57.2389 155.777 57.0986 155.202 57.0986C154.627 57.0986 154.122 57.2389 153.687 57.5195C153.252 57.786 152.908 58.1578 152.656 58.6348C152.417 59.0977 152.298 59.6379 152.298 60.2551C152.298 60.8724 152.417 61.4195 152.656 61.8965C152.908 62.3735 153.252 62.7453 153.687 63.0118C154.122 63.2784 154.627 63.4117 155.202 63.4117ZM162.785 66V54.5103H165.731V57.267L165.521 56.8671C165.774 55.8991 166.187 55.2468 166.763 54.9101C167.352 54.5594 168.046 54.384 168.846 54.384H169.519V57.1197H168.53C167.759 57.1197 167.134 57.3581 166.657 57.8351C166.18 58.2981 165.942 58.9574 165.942 59.8132V66H162.785ZM176.427 66.1263C175.038 66.1263 173.958 65.7545 173.187 65.011C172.429 64.2534 172.05 63.2012 172.05 61.8544V57.2459H170.114V54.5103H170.219C170.809 54.5103 171.258 54.363 171.566 54.0683C171.889 53.7737 172.05 53.3318 172.05 52.7426V51.9009H175.207V54.5103H177.9V57.2459H175.207V61.644C175.207 62.0368 175.277 62.3665 175.417 62.633C175.557 62.8856 175.775 63.075 176.07 63.2012C176.364 63.3275 176.729 63.3906 177.164 63.3906C177.262 63.3906 177.374 63.3836 177.501 63.3696C177.627 63.3555 177.76 63.3415 177.9 63.3275V66C177.69 66.0281 177.451 66.0561 177.185 66.0842C176.918 66.1122 176.666 66.1263 176.427 66.1263ZM179.329 66V50.0701H182.486V66H179.329ZM187.931 66.2525C187.103 66.2525 186.388 66.1192 185.785 65.8527C185.181 65.5861 184.718 65.2074 184.396 64.7163C184.073 64.2113 183.912 63.6151 183.912 62.9277C183.912 62.2823 184.059 61.7141 184.354 61.2231C184.648 60.7181 185.097 60.2972 185.7 59.9605C186.318 59.6238 187.082 59.3853 187.994 59.245L191.508 58.6769V60.9917L188.562 61.5177C188.113 61.6019 187.77 61.7492 187.531 61.9597C187.293 62.1561 187.173 62.4437 187.173 62.8224C187.173 63.1732 187.307 63.4467 187.573 63.6431C187.84 63.8395 188.17 63.9377 188.562 63.9377C189.081 63.9377 189.537 63.8255 189.93 63.601C190.323 63.3766 190.625 63.075 190.835 62.6962C191.059 62.3034 191.172 61.8755 191.172 61.4125V58.4243C191.172 57.9894 190.996 57.6247 190.646 57.3301C190.309 57.0355 189.846 56.8882 189.257 56.8882C188.696 56.8882 188.198 57.0425 187.763 57.3511C187.342 57.6598 187.033 58.0666 186.837 58.5717L184.312 57.3722C184.536 56.7268 184.894 56.1727 185.385 55.7097C185.876 55.2468 186.465 54.889 187.152 54.6365C187.84 54.384 188.59 54.2577 189.404 54.2577C190.372 54.2577 191.228 54.4331 191.971 54.7838C192.715 55.1345 193.29 55.6256 193.697 56.2569C194.118 56.8741 194.328 57.5966 194.328 58.4243V66H191.382V64.1482L192.098 64.0219C191.761 64.527 191.389 64.9478 190.982 65.2845C190.575 65.6072 190.12 65.8457 189.614 66C189.109 66.1683 188.548 66.2525 187.931 66.2525ZM196.222 66V54.5103H199.168V57.267L198.958 56.8671C199.21 55.8991 199.624 55.2468 200.2 54.9101C200.789 54.5594 201.483 54.384 202.283 54.384H202.956V57.1197H201.967C201.196 57.1197 200.571 57.3581 200.094 57.8351C199.617 58.2981 199.379 58.9574 199.379 59.8132V66H196.222ZM203.687 66V54.5103H206.844V66H203.687ZM208.512 66V54.5103H211.458V56.783L211.29 56.2779C211.556 55.5905 211.984 55.0854 212.574 54.7628C213.177 54.4261 213.878 54.2577 214.678 54.2577C215.548 54.2577 216.305 54.4401 216.951 54.8049C217.61 55.1696 218.122 55.6817 218.487 56.341C218.852 56.9864 219.034 57.7439 219.034 58.6137V66H215.877V59.2871C215.877 58.8382 215.786 58.4524 215.604 58.1297C215.435 57.8071 215.19 57.5545 214.867 57.3722C214.559 57.1898 214.194 57.0986 213.773 57.0986C213.366 57.0986 213.001 57.1898 212.679 57.3722C212.356 57.5545 212.104 57.8071 211.921 58.1297C211.753 58.4524 211.669 58.8382 211.669 59.2871V66H208.512ZM220.457 66V54.5103H223.614V66H220.457ZM225.282 66V54.5103H228.228V56.783L228.06 56.2779C228.326 55.5905 228.754 55.0854 229.343 54.7628C229.947 54.4261 230.648 54.2577 231.448 54.2577C232.318 54.2577 233.075 54.4401 233.72 54.8049C234.38 55.1696 234.892 55.6817 235.257 56.341C235.621 56.9864 235.804 57.7439 235.804 58.6137V66H232.647V59.2871C232.647 58.8382 232.556 58.4524 232.374 58.1297C232.205 57.8071 231.96 57.5545 231.637 57.3722C231.329 57.1898 230.964 57.0986 230.543 57.0986C230.136 57.0986 229.771 57.1898 229.449 57.3722C229.126 57.5545 228.873 57.8071 228.691 58.1297C228.523 58.4524 228.439 58.8382 228.439 59.2871V66H225.282ZM241.05 66V50.3226H247.048C248.128 50.3226 249.082 50.512 249.91 50.8908C250.751 51.2696 251.411 51.8307 251.888 52.5743C252.365 53.3178 252.603 54.2367 252.603 55.331C252.603 56.3972 252.358 57.309 251.867 58.0666C251.376 58.8101 250.716 59.3713 249.889 59.7501L253.466 66H249.804L245.932 59.0767L248.037 60.3183H244.312V66H241.05ZM244.312 57.4774H247.069C247.532 57.4774 247.932 57.3862 248.268 57.2038C248.605 57.0214 248.864 56.7689 249.047 56.4463C249.243 56.1236 249.341 55.7518 249.341 55.331C249.341 54.8961 249.243 54.5173 249.047 54.1946C248.864 53.8719 248.605 53.6194 248.268 53.437C247.932 53.2547 247.532 53.1635 247.069 53.1635H244.312V57.4774ZM259.331 66.2525C258.111 66.2525 257.051 65.986 256.154 65.4529C255.256 64.9057 254.561 64.1762 254.07 63.2643C253.579 62.3525 253.334 61.3424 253.334 60.2341C253.334 59.0837 253.586 58.0596 254.091 57.1617C254.61 56.2639 255.305 55.5554 256.175 55.0363C257.044 54.5173 258.027 54.2577 259.121 54.2577C260.033 54.2577 260.839 54.405 261.541 54.6997C262.242 54.9802 262.831 55.3801 263.308 55.8991C263.799 56.4182 264.171 57.0214 264.424 57.7089C264.676 58.3823 264.803 59.1188 264.803 59.9184C264.803 60.1429 264.788 60.3674 264.76 60.5918C264.746 60.8023 264.711 60.9846 264.655 61.139H256.048V58.8242H262.867L261.372 59.9184C261.513 59.3152 261.506 58.7821 261.351 58.3191C261.197 57.8421 260.923 57.4704 260.531 57.2038C260.152 56.9232 259.682 56.783 259.121 56.783C258.574 56.783 258.104 56.9162 257.711 57.1828C257.318 57.4493 257.023 57.8421 256.827 58.3612C256.631 58.8803 256.553 59.5116 256.596 60.2551C256.539 60.9005 256.617 61.4686 256.827 61.9597C257.037 62.4507 257.36 62.8365 257.795 63.117C258.23 63.3836 258.756 63.5169 259.373 63.5169C259.934 63.5169 260.411 63.4046 260.804 63.1802C261.211 62.9557 261.527 62.6471 261.751 62.2543L264.276 63.4537C264.052 64.0149 263.694 64.5059 263.203 64.9268C262.726 65.3477 262.158 65.6773 261.499 65.9158C260.839 66.1403 260.117 66.2525 259.331 66.2525ZM268.029 70.6296C267.692 70.6296 267.363 70.6015 267.04 70.5454C266.731 70.4893 266.458 70.3981 266.219 70.2718V67.6835C266.416 67.7396 266.647 67.7887 266.914 67.8308C267.18 67.8729 267.426 67.8939 267.65 67.8939C268.268 67.8939 268.709 67.7466 268.976 67.452C269.243 67.1714 269.46 66.8488 269.628 66.484L270.407 64.6953L270.365 67.3257L265.314 54.5103H268.702L272.048 63.6221H270.786L274.132 54.5103H277.52L272.596 67.0732C272.287 67.8588 271.908 68.5182 271.459 69.0513C271.01 69.5844 270.498 69.9772 269.923 70.2297C269.362 70.4963 268.731 70.6296 268.029 70.6296ZM283.807 66.2525C282.587 66.2525 281.528 65.986 280.63 65.4529C279.732 64.9057 279.038 64.1762 278.547 63.2643C278.056 62.3525 277.81 61.3424 277.81 60.2341C277.81 59.0837 278.063 58.0596 278.568 57.1617C279.087 56.2639 279.781 55.5554 280.651 55.0363C281.521 54.5173 282.503 54.2577 283.597 54.2577C284.509 54.2577 285.316 54.405 286.017 54.6997C286.718 54.9802 287.308 55.3801 287.785 55.8991C288.276 56.4182 288.647 57.0214 288.9 57.7089C289.152 58.3823 289.279 59.1188 289.279 59.9184C289.279 60.1429 289.265 60.3674 289.237 60.5918C289.223 60.8023 289.188 60.9846 289.131 61.139H280.525V58.8242H287.343L285.849 59.9184C285.989 59.3152 285.982 58.7821 285.828 58.3191C285.673 57.8421 285.4 57.4704 285.007 57.2038C284.628 56.9232 284.158 56.783 283.597 56.783C283.05 56.783 282.58 56.9162 282.187 57.1828C281.794 57.4493 281.5 57.8421 281.303 58.3612C281.107 58.8803 281.03 59.5116 281.072 60.2551C281.016 60.9005 281.093 61.4686 281.303 61.9597C281.514 62.4507 281.836 62.8365 282.271 63.117C282.706 63.3836 283.232 63.5169 283.849 63.5169C284.411 63.5169 284.888 63.4046 285.28 63.1802C285.687 62.9557 286.003 62.6471 286.227 62.2543L288.753 63.4537C288.528 64.0149 288.17 64.5059 287.679 64.9268C287.202 65.3477 286.634 65.6773 285.975 65.9158C285.316 66.1403 284.593 66.2525 283.807 66.2525ZM295.22 66.2525C293.957 66.2525 292.856 65.9579 291.916 65.3687C290.99 64.7654 290.359 63.9588 290.022 62.9487L292.337 61.8544C292.632 62.4717 293.031 62.9557 293.536 63.3064C294.041 63.6572 294.603 63.8325 295.22 63.8325C295.669 63.8325 296.013 63.7413 296.251 63.559C296.489 63.3766 296.609 63.1241 296.609 62.8014C296.609 62.633 296.567 62.4928 296.482 62.3805C296.398 62.2543 296.272 62.142 296.104 62.0438C295.935 61.9456 295.725 61.8614 295.472 61.7913L293.515 61.2442C292.575 60.9776 291.853 60.5497 291.348 59.9605C290.843 59.3573 290.59 58.6488 290.59 57.8351C290.59 57.1197 290.773 56.4954 291.137 55.9623C291.502 55.4292 292.014 55.0153 292.674 54.7207C293.333 54.4121 294.091 54.2577 294.946 54.2577C296.069 54.2577 297.051 54.5243 297.892 55.0574C298.748 55.5765 299.351 56.313 299.702 57.267L297.366 58.3612C297.198 57.8842 296.889 57.5054 296.44 57.2249C296.005 56.9303 295.507 56.783 294.946 56.783C294.539 56.783 294.217 56.8671 293.978 57.0355C293.754 57.2038 293.642 57.4353 293.642 57.7299C293.642 57.8842 293.684 58.0245 293.768 58.1508C293.852 58.277 293.985 58.3893 294.168 58.4875C294.364 58.5857 294.603 58.6769 294.883 58.761L296.714 59.3082C297.668 59.5888 298.397 60.0166 298.902 60.5918C299.408 61.153 299.66 61.8474 299.66 62.6751C299.66 63.3906 299.471 64.0149 299.092 64.548C298.727 65.0811 298.215 65.502 297.556 65.8106C296.896 66.1052 296.118 66.2525 295.22 66.2525ZM306.66 66.1263C305.271 66.1263 304.191 65.7545 303.419 65.011C302.662 64.2534 302.283 63.2012 302.283 61.8544V57.2459H300.347V54.5103H300.452C301.042 54.5103 301.49 54.363 301.799 54.0683C302.122 53.7737 302.283 53.3318 302.283 52.7426V51.9009H305.44V54.5103H308.133V57.2459H305.44V61.644C305.44 62.0368 305.51 62.3665 305.65 62.633C305.79 62.8856 306.008 63.075 306.302 63.2012C306.597 63.3275 306.962 63.3906 307.397 63.3906C307.495 63.3906 307.607 63.3836 307.733 63.3696C307.86 63.3555 307.993 63.3415 308.133 63.3275V66C307.923 66.0281 307.684 66.0561 307.418 66.0842C307.151 66.1122 306.899 66.1263 306.66 66.1263ZM309.562 66V54.5103H312.508V57.267L312.298 56.8671C312.55 55.8991 312.964 55.2468 313.539 54.9101C314.128 54.5594 314.823 54.384 315.623 54.384H316.296V57.1197H315.307C314.535 57.1197 313.911 57.3581 313.434 57.8351C312.957 58.2981 312.719 58.9574 312.719 59.8132V66H309.562ZM317.258 66V54.5103H320.415V66H317.258ZM317.258 53.4791V50.3226H320.415V53.4791H317.258Z" fill="#141414"/>
<defs>
<clipPath id="clip0_6304_24933">
<rect width="88" height="88" fill="white" transform="translate(0.260742)"/>
</clipPath>
</defs>
</svg>
