<!DOCTYPE xml>
<svg width="24" height="32" viewBox="0 0 24 32" fill="none" xmlns="http://www.w3.org/2000/svg">
	<path d="M10.5188 31.281C7.25625 27.258 0 17.5078 0 12.0311C0 5.38644 5.3725 0 12 0C18.625 0 24 5.38644 24 12.0311C24 17.5078 16.6875 27.258 13.4812 31.281C12.7125 32.2397 11.2875 32.2397 10.5188 31.281ZM12 16.0415C14.2063 16.0415 16 14.2431 16 12.0311C16 9.81916 14.2063 8.02076 12 8.02076C9.79375 8.02076 8 9.81916 8 12.0311C8 14.2431 9.79375 16.0415 12 16.0415Z" fill="currentColor" />
</svg>
