<!DOCTYPE xml>
<svg width="24" height="24" viewBox="0 0 24 24" fill="none" xmlns="http://www.w3.org/2000/svg">
	<path d="M12 21C16.9706 21 21 16.9706 21 12C21 7.02944 16.9706 3 12 3C7.02944 3 3 7.02944 3 12C3 16.9706 7.02944 21 12 21Z" stroke="currentColor" stroke-width="2" stroke-linecap="round" stroke-linejoin="round" />
	<path d="M13.2563 12.4309C13.7685 12.1517 14.1731 11.7098 14.4063 11.175C14.6394 10.6403 14.6878 10.0431 14.5437 9.47778C14.3997 8.91247 14.0714 8.41125 13.6108 8.05328C13.1501 7.69531 12.5834 7.50098 12 7.50098C11.4166 7.50098 10.8499 7.69531 10.3892 8.05328C9.92861 8.41125 9.60035 8.91247 9.45629 9.47778C9.31224 10.0431 9.3606 10.6403 9.59374 11.175C9.82688 11.7098 10.2315 12.1517 10.7438 12.4309L9.45 15.4496C9.40029 15.5635 9.37966 15.688 9.38997 15.8118C9.40028 15.9357 9.4412 16.055 9.50907 16.1591C9.57693 16.2633 9.6696 16.3489 9.77874 16.4083C9.88789 16.4677 10.0101 16.4991 10.1344 16.4996H13.8656C13.9899 16.4991 14.1121 16.4677 14.2213 16.4083C14.3304 16.3489 14.4231 16.2633 14.4909 16.1591C14.5588 16.055 14.5997 15.9357 14.61 15.8118C14.6203 15.688 14.5997 15.5635 14.55 15.4496L13.2563 12.4309Z" stroke="currentColor" stroke-width="1.3" stroke-linecap="round" stroke-linejoin="round" />
</svg>
