<svg width="20" height="20" viewBox="0 0 20 20" fill="none" xmlns="http://www.w3.org/2000/svg">
<path opacity="0.4" d="M14.2779 0.833313H5.72238C2.60164 0.833313 0.833496 2.60146 0.833496 5.7222V14.2778C0.833496 17.3904 2.5935 19.1666 5.72238 19.1666H14.2779C17.3987 19.1666 19.1668 17.3904 19.1668 14.2778V5.7222C19.1668 2.60146 17.3987 0.833313 14.2779 0.833313Z" fill="#A3A3A3"/>
<path d="M13.0439 10.6493H10.6872V12.9855C10.6872 13.3617 10.3796 13.6666 10.0002 13.6666C9.62071 13.6666 9.3131 13.3617 9.3131 12.9855V10.6493H6.95641C6.60247 10.613 6.3335 10.3173 6.3335 9.96452C6.3335 9.61177 6.60247 9.31609 6.95641 9.27976H9.30571V6.95083C9.34237 6.59995 9.64063 6.33331 9.99647 6.33331C10.3523 6.33331 10.6506 6.59995 10.6872 6.95083V9.27976H13.0439C13.3979 9.31609 13.6668 9.61177 13.6668 9.96452C13.6668 10.3173 13.3979 10.613 13.0439 10.6493Z" fill="#A3A3A3"/>
</svg>
