<svg width="17" height="18" viewBox="0 0 17 18" xmlns="http://www.w3.org/2000/svg">
<path fill-rule="evenodd" clip-rule="evenodd" d="M8.42226 17.3587C7.92154 17.3587 7.41994 17.2293 6.97378 16.9715L2.24291 14.24C1.34971 13.7234 0.794434 12.7624 0.794434 11.7311V6.26715C0.794434 5.23667 1.34971 4.27571 2.24291 3.75915L6.97378 1.02763C7.86698 0.511949 8.97755 0.511949 9.87075 1.02763L14.6016 3.75915C15.4957 4.27483 16.051 5.23667 16.051 6.26715V11.7311C16.051 12.7624 15.4957 13.7243 14.6016 14.24L9.87075 16.9715C9.42459 17.2293 8.92298 17.3587 8.42226 17.3587ZM11.0706 8.99983C11.0706 10.4624 9.88526 11.6486 8.42182 11.6486C6.95926 11.6486 5.77301 10.4624 5.77301 8.99983C5.77301 7.53551 6.95926 6.35012 8.42182 6.35012C9.88526 6.35012 11.0706 7.53551 11.0706 8.99983Z" />
</svg>
