<svg width="52" height="52" viewBox="0 0 52 52" fill="none" xmlns="http://www.w3.org/2000/svg">
<g clip-path="url(#clip0_6062_25442)">
<path d="M26.2951 26.4518L47.1662 25.7053C46.9556 28.047 46.1006 30.1781 45.4115 32.6282C45.9411 33.6428 47.3831 30.2291 47.4852 29.859C47.5362 29.808 47.9127 28.2065 48.1233 28.8445C47.6958 29.8016 47.5362 30.7587 47.3767 31.3457C47.3767 31.3968 47.3257 32.0923 47.3767 31.9838C47.4852 31.8243 47.5873 31.3968 47.6447 31.1862C47.9127 30.5482 48.1233 29.8016 48.2828 29.3741C48.3338 29.2657 48.3913 29.004 48.4423 28.7871C48.4423 28.417 48.8698 28.3086 48.7103 28.6786C48.7103 28.8892 48.4423 29.7442 48.3402 30.0122C48.4487 30.3823 48.4997 30.0632 48.6082 29.9037C48.6082 29.9037 48.7677 29.4252 48.8762 29.1061C48.9846 28.6786 49.1442 28.2511 49.3037 27.6131C49.3547 27.294 49.5717 26.8665 49.5717 27.294C49.4632 27.9831 49.1442 29.1061 49.0421 29.7442C49.0421 29.9037 48.991 30.0632 49.1505 30.0632C49.259 29.6357 49.5206 28.8381 49.6291 28.7297C50.0566 28.6212 49.259 30.2227 49.259 30.8034C49.259 30.5928 49.6865 29.8973 49.7886 29.7378C50.1587 29.7378 49.7376 30.0058 49.7376 30.2164C49.7376 30.2674 49.0485 32.188 49.208 32.188C49.3675 31.9774 49.8971 30.4844 50.063 30.4333C50.2225 30.5928 49.476 32.2964 49.476 32.6155C49.3164 32.8835 49.2654 33.2025 49.1569 33.4705C49.0485 33.579 49.0485 33.681 49.1059 33.8406C49.1059 33.681 49.476 33.362 49.5334 33.1515C49.6419 32.9409 49.6929 32.724 49.9035 32.8835C49.6355 33.681 49.1059 34.3765 48.7868 35.1231C48.5189 35.4931 48.1488 36.2397 48.5189 35.8122C48.8379 35.4931 48.8379 35.3847 49.0485 35.1741L49.4185 34.5871C49.527 34.536 49.578 34.4276 49.7376 34.4276C49.527 34.9572 49.208 35.4931 48.94 35.9717C48.3019 36.6608 47.9255 37.5668 47.2874 38.2113C47.0768 38.4793 46.5983 38.8494 47.3959 38.5303C48.1935 37.8412 48.8315 36.8267 49.3675 35.9206C49.4185 35.9206 49.527 35.9717 49.578 35.9717C48.94 37.1968 48.085 38.1539 47.3384 39.2194C47.1279 39.43 46.5919 39.8575 46.4834 40.1255C46.643 40.1765 46.5919 40.1765 46.7514 40.0744C47.0705 39.7044 47.498 39.3279 47.9255 39.0089L48.0339 39.1173C47.2874 40.0744 46.5409 40.9294 45.5838 41.676C45.3158 41.8865 44.9457 42.1545 44.6777 42.314C45.0478 42.5246 46.4898 41.2995 46.8599 41.0379C46.9109 40.9294 46.9684 40.9294 47.0705 40.8273C47.1215 40.7189 47.498 40.4573 47.498 40.7763C47.0194 41.2038 46.5409 41.6823 46.0623 42.1098C45.2647 42.799 44.4097 43.4944 43.4526 44.024C43.7717 44.1836 45.2073 43.2775 45.4753 43.0669C45.6859 42.9074 45.9028 42.7479 46.1134 42.5884C46.1134 42.6394 46.3239 42.7479 46.3814 42.7479C45.9028 43.118 45.3668 43.4944 44.8372 43.8135C44.3077 44.1836 43.6122 44.6685 43.0251 44.9875C42.4381 45.2555 41.8001 45.6766 41.162 45.7851C41.162 45.9446 42.1765 45.6256 42.2786 45.6256C43.0762 45.415 43.8738 45.096 44.5693 44.56C44.7798 44.7706 44.7288 44.7706 44.4608 44.9301C44.1418 45.1981 43.7143 45.3002 43.4463 45.6192C43.0762 45.7787 42.5913 46.0977 42.1701 46.2062C41.3151 46.6848 40.307 47.0612 39.4009 47.3803C39.133 47.3803 38.8139 47.5908 38.6034 47.5908C38.3928 47.5908 38.4439 47.6993 38.6544 47.6993C39.2414 47.6993 39.72 47.6482 40.2496 47.5398C40.6196 47.4887 40.9961 47.3292 41.3151 47.2207C41.8447 47.0612 42.4317 46.6911 43.0188 46.4742C43.0188 46.5252 43.0698 46.6337 43.1272 46.6848C42.6487 47.1633 41.8511 47.2718 41.2641 47.5398C41.2641 47.5398 41.1556 47.6482 41.1046 47.6482C40.8366 47.6482 40.1475 48.0183 39.9305 48.0183C39.3435 48.1268 38.4949 48.5479 37.9079 48.5479C38.3354 48.7074 39.0819 48.4969 39.5605 48.3884C39.5605 48.4969 39.8795 48.5989 39.8795 48.6564C39.72 49.186 39.3499 49.7219 39.0819 50.2005C38.3928 50.5195 37.7484 50.947 37.0593 51.2661C36.8487 51.2661 36.6892 51.2661 36.8487 50.947C36.8487 50.947 37.3783 50.36 37.1167 50.36C36.9061 50.36 36.6892 50.309 36.6892 50.628C36.6892 50.679 36.6381 50.7875 36.5807 50.8385C36.5807 51.2086 36.4212 51.9552 36.0511 52.1147C35.7831 52.3827 35.1451 52.4848 34.775 52.6443C33.9774 52.6443 32.9118 53.1739 32.1143 52.6443C31.9037 52.6443 31.5847 52.6953 31.7442 52.3763C31.9037 52.3763 31.9548 52.3763 32.0632 52.3252C32.4333 52.3252 34.1369 51.8977 33.9264 51.5277C33.7668 51.5277 33.5563 51.5787 33.3968 51.4192C33.2373 51.4192 33.1862 51.3681 33.0267 51.3107C32.8672 51.0427 32.3886 51.2597 32.2291 51.0427C32.0696 50.9917 31.859 50.8832 32.1781 51.1512C32.1781 51.4192 32.2291 51.7382 31.9101 51.8403C31.8016 51.8914 31.6421 51.9998 31.4826 51.9998C31.272 51.9998 30.5765 52.0509 30.5765 51.7893C30.366 51.8977 30.5255 51.8977 30.5255 52.0573C30.685 52.0573 30.417 52.4273 30.366 52.4848C30.098 52.9633 28.8729 52.9123 28.4518 52.9123C28.2923 52.8612 28.0817 52.8038 27.9222 52.7527C27.2331 52.3827 26.4291 52.0636 25.7911 51.6361C25.5805 51.6361 25.204 51.9041 24.9935 52.0636C24.3554 52.4911 23.7174 53.1292 22.8624 53.1292C22.5944 53.1292 22.3328 53.1292 22.2243 52.9186C22.0648 52.9186 22.0648 52.5996 22.0648 52.4911C22.0648 52.4911 22.4349 52.0636 22.1158 52.2231C21.7968 52.4911 21.0503 52.5422 20.6228 52.4337C20.1953 52.0062 20.3037 51.9041 20.6228 51.5787C20.5717 51.5787 20.3037 51.3681 20.2527 51.3107C20.2527 51.2022 20.2016 51.1002 20.1442 50.9917C19.7167 51.2022 19.2892 51.2022 18.9191 50.9406C18.6511 51.2086 18.3321 51.4192 17.8536 51.4192C17.7451 51.3681 17.643 51.3107 17.5345 51.2597C16.788 51.2597 16.8965 51.2086 16.8965 51.7893C16.8965 51.9488 16.9475 52.0572 16.8965 52.1593C16.8965 52.2678 16.788 52.5294 16.6285 52.5294C16.3605 52.7974 15.7735 52.9569 15.4034 52.8484C15.0333 52.8484 14.8738 52.74 14.6569 52.4784C14.4463 52.4784 14.4973 52.3699 14.4973 52.2104C14.2294 51.9998 14.2294 50.9853 14.6569 50.6663C14.7079 50.6152 14.9249 50.2962 14.7653 50.2962C14.7653 50.1367 14.8164 50.0856 14.6058 50.0856C14.4463 50.0856 14.5548 49.9261 14.3378 49.9261C13.9678 49.7666 13.8593 49.9772 13.5403 49.9772C13.1702 50.5068 12.6342 51.1512 11.9451 51.1512C11.7856 51.1512 11.575 50.8322 11.575 50.6216C11.4665 50.2515 11.524 49.6645 11.6261 49.2881C11.3581 49.2881 11.307 49.1796 11.0965 49.0201C11.0454 49.0201 10.937 48.7521 10.937 48.701C10.937 48.382 10.7264 48.4331 10.7264 48.331C10.7264 48.063 10.1968 48.382 10.0373 48.382H9.29075C9.29075 48.382 9.3418 48.331 9.3418 48.2735C8.81221 48.2735 8.43575 47.476 8.70374 46.9974C8.59527 46.9974 8.70374 46.8889 8.70374 46.7869C8.86325 46.4168 9.60979 46.1488 9.97986 45.9893C9.7693 45.9893 9.82035 45.7213 9.60979 45.7213C9.55874 45.6702 9.50132 45.6128 9.50132 45.5107C9.13124 45.5107 9.60979 44.8727 8.97172 44.8727C8.86538 44.7663 8.74202 44.7131 8.60165 44.7131H8.49318C8.01463 44.7131 6.84059 44.0751 6.84059 43.6476C6.89164 43.4881 7.05115 43.3796 7.21067 43.2201C7.5297 42.9521 6.89164 43.0606 6.78317 42.6905C6.46414 42.582 6.41309 42.263 6.41309 42.0014C6.41309 41.6313 6.94268 41.4144 7.1022 41.0953C6.78317 40.8848 6.51518 41.0443 6.1451 40.9358H5.7176C5.44962 40.8848 5.07954 40.6678 4.97107 40.4573C4.8626 40.1893 4.81155 39.8192 4.8626 39.5002C4.8626 39.0727 5.76865 38.9706 5.76865 38.6452C5.50066 38.5367 5.34115 38.0582 5.18163 37.8476C5.07316 37.4775 5.02211 36.9926 5.02211 36.6225C4.49252 36.6225 4.11606 36.5715 3.74599 36.0929C3.31849 35.6654 3.2164 35.1869 3.2164 34.5999C3.2164 34.0128 2.6868 34.3893 2.41882 34.1213C2.20826 34.1213 2.46986 33.6428 2.15083 33.5917C1.78075 33.3237 1.4043 32.9537 1.4043 32.4177C1.4043 31.6711 2.2593 32.3092 2.2593 31.6711C2.2593 30.6566 2.36777 30.9246 3.00583 30.4971C3.05688 30.127 2.79527 30.2291 2.73785 29.9101C2.46986 29.6995 2.46986 29.3231 2.31035 29.1636C2.31035 28.3086 2.52091 27.9895 3.16535 27.6194H3.43334C3.80341 27.6194 3.86084 28.047 4.02035 28.047C4.23092 28.4745 4.17987 28.047 4.0714 28.047C4.0714 27.8874 4.12245 27.4599 3.91188 27.4599C3.91188 27.3004 3.91188 27.0899 3.86084 26.9303C3.75237 26.9303 3.80979 26.6624 3.80979 26.6113L26.3334 26.4518H26.2951Z" fill="#231F20"/>
<path d="M13.7827 49.4546C13.7827 48.4975 14.6888 48.708 15.2758 48.4975C15.6459 48.4975 16.2329 48.1274 16.4498 47.8594C16.6093 47.1129 15.9713 47.4319 15.9713 46.8449C15.9713 46.3153 16.4498 46.4748 16.7688 46.4748C16.9284 46.4748 16.9284 46.5833 17.0879 46.5833C16.6604 46.7938 16.7178 46.9534 16.7178 47.3298C16.7178 47.4893 16.3477 48.2359 16.7688 48.2359C16.7688 48.3954 17.0368 48.2869 16.8199 48.3954C16.8199 48.925 15.4863 49.5694 15.2758 49.7289C15.3843 49.9395 16.0223 49.4609 16.1308 49.3589C16.2393 49.4099 15.8118 50.1564 15.7607 50.2649C15.6012 50.7435 15.3906 51.2794 15.3906 51.809C15.3906 52.1281 15.5501 51.809 15.5501 51.7006C15.5501 51.3305 16.1372 49.6779 16.4562 49.3589C16.5072 49.4673 16.6157 49.9969 16.6668 49.9969C16.6668 50.2075 16.9347 50.4755 16.9858 50.635C17.4133 50.8455 16.8263 49.7289 16.8263 49.5184C16.6157 49.3078 16.8773 48.8293 16.9858 48.6123C16.9858 48.6634 17.3048 49.1419 17.3048 48.7718C17.3048 48.8229 17.8344 48.7718 17.9939 48.7718L19.806 48.8803C20.1251 49.2504 19.6976 49.7353 19.436 49.7353C18.9064 49.7353 18.1024 49.0462 17.9429 49.2057C17.1964 49.7927 18.7405 50.7498 18.0514 51.0689C17.7834 51.0689 17.0368 51.1199 16.8263 50.8009C15.6012 51.1199 16.6668 52.5045 15.1737 52.5045C14.3187 52.5045 14.2676 51.5474 14.7462 51.0114C15.0652 50.6924 15.1163 49.7353 14.4782 49.7353C14.3697 49.8438 13.7891 49.7353 13.7891 49.4673L13.7827 49.4546Z" fill="#869A8F"/>
<path d="M30.5507 51.8532H30.4996H30.4486H30.3912L30.3401 51.7958L30.2891 51.7448V51.6937L30.3401 51.5853H30.3912H30.4486H30.4996L30.5507 51.5342H30.6081L30.7102 51.4257H30.8187L30.9271 51.3747H31.0292H31.1377H31.1887H31.2972H31.3482H31.4567V51.4257V51.4768V51.5342V51.5853V51.6363V51.6937L31.2462 51.7958L31.1377 51.8532H31.0866H30.9782H30.9271H30.8187H30.7676H30.6591H30.6081H30.5507Z" fill="#4A6E6F"/>
<path d="M22.1919 50.5728V50.5217V50.4707V50.4132V50.3112V50.2537V50.1516L22.2429 49.9921L22.3004 50.0432L22.3514 50.0942L22.4025 50.1516H22.4599H22.5109L22.5684 50.2027L22.6194 50.2537H22.7279V50.3622L22.6704 50.4132H22.6194L22.5109 50.4707H22.4599L22.3514 50.5217H22.3004L22.2429 50.5728H22.1919Z" fill="white"/>
<path d="M24.1127 50.1497C23.8447 50.1497 23.4747 49.0841 23.5831 48.8735C23.3726 48.8735 23.2131 48.5035 22.9961 48.5035C22.4091 48.714 21.5031 49.4606 20.9735 49.1415C20.8139 49.033 20.546 48.8225 20.865 48.5035C20.9735 48.4524 20.7565 47.7059 21.0756 47.7059C21.0756 47.8654 21.3946 47.7059 21.4456 47.6548C21.7647 47.3868 22.1347 47.9739 22.3006 48.1844C22.6707 48.0249 22.0326 47.5974 22.0326 47.4379C22.1922 47.2784 24.1638 47.2273 24.1638 47.9164C24.4318 47.9164 24.3743 48.5545 24.3743 48.7714C24.6423 48.982 24.5339 48.2929 24.5339 48.1844C24.5339 47.5464 25.0124 48.3439 25.0634 48.4524C25.1719 48.663 26.0205 49.8881 26.2375 49.4095C25.7589 49.0905 25.4399 48.2355 24.9614 47.8143C24.9103 47.7633 24.6423 47.5464 24.8529 47.6548C25.3314 47.6548 25.8674 47.9228 26.1864 47.3358C25.9759 47.4443 23.4683 47.3358 23.4683 47.0168H22.3517C22.6197 46.8062 23.6278 46.0023 23.5768 45.8427C23.1493 46.1107 22.6197 46.4808 22.1922 46.7488C20.8076 47.8143 21.6051 46.0023 21.6626 46.0023C21.8221 46.0023 21.8731 45.7343 21.771 45.6322C22.039 45.3642 22.3581 45.1536 22.6771 44.9941C22.7856 44.9431 23.4747 44.8346 23.4747 44.8856C23.5831 44.8856 23.7427 45.0452 23.9022 45.0452C23.9022 45.2047 24.1702 45.5237 24.1702 45.8427C24.1702 46.7488 25.2357 46.6403 25.8227 46.4808C26.1418 46.6914 26.7798 46.7488 26.7798 47.2784C26.6203 47.5974 26.5693 47.5974 26.3523 47.8654C26.3523 47.9164 26.3013 48.076 26.2439 48.1334C26.2439 48.8799 27.201 48.8799 27.201 49.4095C27.201 49.6775 27.252 50.2645 26.8309 50.2645C26.5629 50.5835 25.6058 50.424 25.6058 49.8944C25.4973 49.8944 25.2868 49.786 25.2868 49.6839C24.6997 49.5754 24.5913 50.1624 24.1127 50.1624V50.1497Z" fill="#869A8F"/>
<path d="M23.3661 49.8318L23.4171 49.7233H23.3087H23.2066L23.0981 49.6723L23.0471 49.6148H22.9896L22.9386 49.5638H22.7791L22.728 49.5064V49.4553V49.4043H22.6706H22.6195L22.5685 49.3468V49.2958H22.5111L22.46 49.2448V49.1873H22.4026V49.1363H22.3516V49.0852V48.9768H22.4026H22.46H22.5111H22.5685H22.6195H22.6706L22.728 48.9257V48.9768L22.8875 49.0278L22.9386 49.0852H23.0471L23.0981 49.1363L23.2066 49.1873L23.2576 49.2448L23.3661 49.2958V49.4043V49.4553V49.5064V49.5638V49.6723V49.7743H23.4171L23.3661 49.8318Z" fill="#869A8F"/>
<path d="M33.218 49.1341C32.5289 49.2426 31.3548 49.4021 30.6083 49.4021C29.8107 49.4021 29.4917 49.032 29.4917 48.4961C29.4917 47.539 31.6739 48.3876 32.3694 48.445C33.1669 48.5535 33.805 48.713 34.609 48.713C35.4129 48.713 34.1815 48.981 34.0794 48.981C34.0283 49.032 33.4413 49.1405 33.2244 49.1405L33.218 49.1341Z" fill="#FCEE1F"/>
<path d="M10.9051 48.3887C10.854 48.3887 10.535 48.0186 10.267 48.1207C9.78845 48.1207 8.77393 48.6503 8.77393 47.7506C8.77393 47.0041 9.09296 47.0615 9.52046 46.7361C9.67998 46.8956 10.535 46.7871 10.535 46.366C10.7455 46.1555 10.1649 45.192 11.39 45.779C12.1876 45.779 12.7235 45.9385 12.7235 44.9814C12.7235 44.2923 13.8976 43.9159 14.1081 44.4518C14.3761 44.4518 15.0142 45.1984 14.9057 45.3579C14.9057 45.9959 14.7462 45.8875 14.8547 46.2639C14.2166 46.2639 14.0571 45.8364 13.419 45.6769C13.3106 45.4664 13.368 45.5174 13.151 45.5684C13.151 45.8364 13.7891 46.1555 14.0571 46.2065C13.9486 46.2575 12.6725 46.4745 12.513 46.634C12.1939 46.6851 11.3389 46.4745 11.0773 46.1555C11.0263 46.2639 10.9689 46.315 10.9689 46.4234C11.2368 46.4234 11.7664 46.7935 11.926 46.7935C11.5559 47.0041 10.8093 47.0041 10.3818 47.0041C10.3308 47.0551 9.63531 47.2146 10.5414 47.2146C11.1284 47.2146 11.658 47.2657 12.1939 47.0041C12.0855 47.2146 11.4474 47.9612 11.5559 48.1207C11.8239 48.1207 12.1939 47.3742 12.4109 47.1062C12.9405 46.6787 13.1 46.5192 13.904 46.5192C14.4335 46.3596 12.8384 47.4762 13.4764 47.4762C13.5849 47.2083 14.5931 46.2512 14.5931 46.5192H15.1801C14.5931 46.7871 15.2311 47.0487 15.2311 47.1062C16.6157 47.4762 15.4417 48.2228 14.274 48.2228C14.0635 48.2228 13.955 48.3823 13.7444 48.7524C13.4764 49.0204 12.9469 47.8974 12.3598 48.4844C11.8813 48.9119 11.9323 49.2309 11.1858 49.2309C10.9752 49.1799 11.0263 48.3759 10.9178 48.3759L10.9051 48.3887Z" fill="#869A8F"/>
<path d="M27.4114 49.1853H27.3604V49.1343V49.0832V49.0258V48.9747V48.8663H27.5199L27.6794 48.7642H27.8389L28.0495 48.6557L28.209 48.6047L28.3685 48.4962L28.5854 48.3877L28.796 48.2282H29.0066L29.1661 48.3367L28.9555 48.4962L28.7449 48.5472L28.5854 48.6047L28.4195 48.6557L28.209 48.7642H28.1005L27.8899 48.8663L27.7304 48.9237L27.6794 48.9747L27.622 49.0258L27.5709 49.0832L27.5199 49.1343V49.1853H27.4114Z" fill="#FCEE1F"/>
<path d="M27.201 48.6569C26.933 48.6569 26.933 48.4463 26.7735 48.4463C26.7735 48.3953 26.665 48.2358 26.665 48.2358C26.665 47.4382 27.5711 46.6406 28.0496 46.1621C28.7387 45.6325 29.4342 45.205 30.1233 44.7775C29.4853 45.524 28.7898 46.3726 28.5282 47.3361C28.3176 47.7636 27.8901 48.6697 27.1946 48.6697L27.201 48.6569Z" fill="#FCEE1F"/>
<path d="M17.6685 48.4462C17.0304 48.1783 17.4579 47.4317 17.9365 47.1127C18.2045 46.7426 18.1471 46.8447 18.1471 46.4236C18.1471 45.7345 16.4434 46.0535 16.335 46.0535C15.9649 46.0535 15.2694 45.8429 15.2694 45.3644C15.2694 45.2559 15.799 45.3644 16.067 45.2049C16.973 44.7774 15.9585 43.8713 15.3779 43.8713C15.3268 43.8203 14.8993 43.6033 14.8993 43.5523C14.7398 42.9142 14.7908 42.4867 15.3268 42.2188C15.4353 42.3272 16.5519 42.6973 16.5519 42.8058C16.5519 42.9653 16.922 43.2333 17.0815 43.3354C17.241 43.4375 18.1471 43.0674 18.1981 43.5459L18.5682 43.6544C19.2573 43.6544 18.3002 44.6115 19.5827 44.6115C20.0612 44.6115 20.3803 44.2414 20.7567 44.5604C21.7138 45.2495 20.4377 46.5831 20.2782 47.4381C19.9592 46.9085 19.9081 45.8429 19.9081 45.2559C19.6975 45.2559 19.6975 45.2049 19.6401 45.4154C19.6401 45.626 19.5891 46.0535 19.6912 46.2704C19.5316 46.162 19.4232 46.0025 19.2637 45.8429C19.1552 45.6834 18.4661 45.1538 18.4661 45.0964C18.1981 45.0964 18.0386 43.2333 17.828 43.6033C17.828 43.7118 17.828 44.6179 18.0386 44.7774C17.3495 44.6179 16.2265 43.4438 16.0159 42.8058H15.8054C15.9649 43.6033 16.7625 44.4009 17.4579 44.7774C18.3129 45.307 16.7114 44.9369 16.7114 45.2049C16.7114 45.575 17.9875 45.3644 18.2555 45.3134C18.8936 45.5813 19.4296 46.43 19.8507 46.9659C19.5827 46.9659 18.6256 46.9149 18.5171 47.1255C18.5682 47.3934 19.8507 47.1255 20.0612 47.4955C20.0612 47.604 20.0612 48.1846 20.1697 48.2931C19.9017 48.4016 19.5317 48.2931 19.2637 48.4016C18.9957 48.5611 17.6685 48.4526 17.6685 48.4526V48.4462Z" fill="#869A8F"/>
<path d="M38.7565 48.0179C37.5314 48.6049 36.1979 48.4965 34.9218 48.2859C34.6027 48.2349 34.9728 48.1774 35.1897 48.1264C35.6683 47.9669 36.2043 47.9158 36.6254 47.5968C37.3719 47.8074 38.01 48.1264 38.7565 48.0243V48.0179Z" fill="#FCEE1F"/>
<path d="M31.9353 46.952C32.3628 46.952 32.8413 46.952 33.2688 47.0604C34.545 47.3284 34.9214 47.3795 35.8275 47.4879C35.9359 47.4879 36.3571 47.5964 36.038 47.5964C35.987 47.5964 35.2404 47.807 35.183 47.807C34.7045 48.0175 32.2543 48.3366 31.9863 48.075C31.2398 48.075 31.3993 46.9583 31.9353 46.9583V46.952Z" fill="#FCEE1F"/>
<path d="M29.2749 48.0688C27.7818 47.3222 31.138 44.7125 31.725 44.3425C30.9785 45.2996 30.551 46.4736 30.0724 47.5392C29.8044 47.8582 29.7534 48.0688 29.2749 48.0688Z" fill="#FCEE1F"/>
<path d="M36.8356 47.221C36.5676 47.221 36.089 47.17 36.7271 46.953C37.5247 46.6851 38.2202 46.4235 38.9093 46.047C39.1773 46.047 39.3368 46.2065 39.4963 46.2065C40.1343 46.2065 40.7724 46.2065 41.4105 46.098C40.9319 46.366 39.2793 47.0551 38.7498 47.1636C37.8947 47.3742 38.4307 47.1636 36.8356 47.2146V47.221Z" fill="#FCEE1F"/>
<path d="M31.2465 47.0036C30.9785 47.0036 31.1954 46.8951 31.0359 46.8951C30.1809 46.0401 33.1671 43.8069 33.3266 43.9664C32.58 45.083 32.7395 46.4676 31.2529 47.0036H31.2465Z" fill="#FCEE1F"/>
<path d="M37.0464 46.4744C37.4165 46.4744 36.9379 46.5829 36.9379 46.5829C36.7784 46.7424 35.0748 47.0104 34.8642 47.0104C34.3347 47.0104 33.6392 47.1699 33.6392 46.4234C33.6392 45.5173 35.5534 45.9959 35.9809 46.2128C36.2488 46.3213 36.67 46.4808 37.0464 46.4808V46.4744Z" fill="#FCEE1F"/>
<path d="M26.9329 46.6849L26.8754 46.6339L26.8244 46.5765H26.7734L26.7159 46.5254H26.6138V46.4744L26.5054 46.4169V46.3149L26.6649 46.1553L26.9329 45.9384L27.0924 45.7789L27.3604 45.5683L27.622 45.4598L27.941 45.3003L28.209 45.1982L28.5855 45.0323L28.477 45.1982L28.3685 45.2493L28.26 45.4088L28.209 45.4598L28.0495 45.5173L27.941 45.6194L27.8389 45.7278L27.7815 45.8363L27.6794 45.8874L27.5199 46.0469L27.4625 46.1553L27.4114 46.2064L27.3604 46.2574L27.3029 46.3149V46.3659L27.2009 46.4169L27.1434 46.5254L27.0924 46.5765L27.0413 46.6339V46.6849H26.9329Z" fill="#FCEE1F"/>
<path d="M9.3098 45.1413C9.3098 44.7712 10.2669 44.5032 10.2669 43.8652C10.2669 43.5462 9.46932 43.1187 9.36085 42.6401C9.36085 41.951 10.1074 42.3211 9.89044 41.6256C9.89044 41.4661 9.46294 41.096 9.30342 41.096C9.25238 40.9875 8.77383 40.1389 8.98439 39.922C9.09286 39.7624 9.41189 39.3924 9.62245 39.3924C9.99253 39.2328 10.05 39.6029 10.3116 39.4434C10.8412 39.973 10.5795 41.2555 11.9067 40.3495C12.1747 40.4579 12.1173 40.6174 12.2768 40.777C12.6469 40.777 12.4363 41.8936 12.7553 41.8936C13.0744 42.2126 13.8209 41.6256 13.9804 42.002C14.2484 42.002 14.459 42.27 14.51 42.4295C14.5611 42.5891 14.3505 42.7486 14.3505 42.9591C14.3505 42.9591 14.0315 43.4377 14.0825 43.5462C14.51 44.2353 12.8574 43.8141 13.336 43.4377C13.336 43.2782 13.336 43.1697 13.387 43.0102C12.9085 43.0102 13.2786 43.9162 12.8574 43.9162C12.8574 43.9162 12.749 43.9673 12.749 44.0247C12.4299 43.9737 12.8574 44.6628 12.481 44.0757C12.0535 43.4377 11.626 42.5316 11.894 41.7341C11.945 41.5235 11.894 41.2045 11.945 40.9365C11.626 40.9365 11.626 41.951 11.626 42.2126C11.626 42.7422 10.7199 41.3576 10.6689 41.2555C10.4009 40.8854 9.97977 40.4579 9.71178 40.0815C9.3417 40.292 10.8858 41.9957 11.1474 42.3211C11.4665 42.7486 11.4154 42.6911 10.9879 42.5891C10.6689 42.5891 10.0819 42.5891 9.8713 42.4806C9.71178 42.8507 11.2559 42.7996 11.5239 42.9591C11.6323 43.2782 12.0024 44.0247 12.213 44.2353C12.264 44.5032 12.5831 44.2353 12.213 44.6053C11.8429 44.9754 11.2559 44.5543 10.9879 44.6564C10.4583 44.6564 11.8429 45.1349 11.2559 45.2434C11.0964 45.2944 11.2048 45.2944 10.9879 45.3519C10.7199 45.4603 10.9369 45.3008 10.5604 45.4603C10.4009 45.5688 10.0308 46.1495 10.1329 46.1495C9.81387 46.041 9.2779 45.5114 9.2779 45.1349L9.3098 45.1413Z" fill="#869A8F"/>
<path d="M36.6759 44.7133C37.5309 44.7133 38.3285 44.9812 39.1771 44.9812C38.3221 45.6193 35.5018 46.5254 35.7698 45.0897C35.8209 44.8217 36.5164 44.7196 36.6759 44.7196V44.7133Z" fill="#FCEE1F"/>
<path d="M33.5371 45.7799C33.4286 45.7799 33.218 45.6204 33.167 45.5694C33.167 44.2358 34.022 43.9168 34.9217 43.2277C35.0812 43.1192 35.1322 42.9086 35.3492 42.9086C35.1386 43.2787 34.9217 43.7636 34.8196 44.1337C34.609 44.7207 34.3921 45.7863 33.5434 45.7863L33.5371 45.7799Z" fill="#FCEE1F"/>
<path d="M41.0407 45.4085C40.5111 45.6191 39.1776 45.7275 39.1776 45.6191C38.9096 45.4085 38.9096 45.5106 39.1776 45.3511C39.8156 44.981 40.4026 44.6045 41.5192 44.5535C42.0488 44.5024 42.4253 44.6045 42.7954 44.5024C42.3679 44.8215 41.4108 45.3574 41.0407 45.4085Z" fill="#FCEE1F"/>
<path d="M35.2919 44.822C34.7623 44.822 35.2408 43.9159 35.3429 43.7054C35.8215 43.1183 36.4085 42.6398 36.9955 42.1613C36.3574 42.8504 36.4085 44.822 35.3429 44.822H35.2919Z" fill="#FCEE1F"/>
<path d="M38.9668 44.7702C39.2858 44.7702 40.0834 44.2917 40.4024 44.1321C40.4535 44.1321 40.932 44.1832 41.0915 44.2406C40.7725 44.5596 39.6559 44.7702 39.3369 44.7702H38.9668Z" fill="#FCEE1F"/>
<path d="M37.6333 44.3436C37.5249 44.3436 37.3654 43.7566 37.6844 43.7566C37.8949 43.546 39.656 43.865 40.243 43.865C39.7645 44.3436 37.9013 44.9306 37.6333 44.3436Z" fill="#FCEE1F"/>
<path d="M44.614 42.6911C44.0844 43.3802 42.0553 44.8222 41.2578 44.0247C41.0983 43.8651 41.1493 43.6546 41.3662 43.5461C41.6853 43.3355 42.1128 43.1186 42.9104 42.9591C43.4974 42.7996 44.027 42.908 44.614 42.6911Z" fill="#FCEE1F"/>
<path d="M37.1036 43.7053C36.4145 43.1757 37.6906 41.9506 38.1181 41.5231C38.1181 41.5231 37.9586 42.5377 37.9586 42.6397C37.8501 43.1183 37.6396 43.7053 37.1036 43.7053Z" fill="#FCEE1F"/>
<path d="M41.3088 42.5885C41.5768 42.5885 41.7873 42.5885 41.9979 42.5375C41.6789 42.9075 38.9097 44.0816 38.8586 43.2266C38.5907 42.161 40.7218 42.5885 41.3088 42.5885Z" fill="#FCEE1F"/>
<path d="M6.75127 42.639C6.6428 42.639 6.54071 42.1094 6.70022 42.1094C6.91079 42.0009 7.0703 42.0009 7.28724 41.8414C7.4978 41.6309 7.44676 41.1523 7.17877 41.0438C7.17877 40.7759 6.22168 40.8843 6.00474 40.8843C5.52619 40.7759 4.8307 40.5653 5.14973 39.8698C5.36029 39.7103 6.26634 39.3402 6.26634 38.9127C5.99836 38.6447 5.51981 38.2747 5.30925 37.9556C5.2582 37.5855 5.20078 37.158 5.46876 36.839C5.57723 36.839 5.83884 36.52 5.94731 36.6285C6.15787 36.6285 6.37481 36.6795 6.63642 36.6795C6.84698 37.0496 7.38295 38.0641 7.91254 37.7961C8.07206 37.7961 8.28262 37.426 8.60165 37.426C9.18867 37.426 9.45665 37.9556 9.82673 38.3321C10.1458 38.4916 9.82673 38.8617 10.0373 39.0212C9.66721 39.0212 8.76117 39.2317 8.76117 39.6082C8.6527 39.6082 8.49318 39.8188 8.44214 39.8188C8.17415 40.0293 8.44213 39.7103 8.17415 39.7103C8.17415 39.1807 8.01463 38.6447 8.17415 38.0577C7.96359 37.4196 7.90616 39.2828 7.90616 39.2828C8.11672 39.9209 7.58713 39.2828 7.42762 39.1233C6.94907 38.5937 6.36205 37.7897 5.99197 37.2091C5.56447 37.4197 7.37657 39.4997 7.74665 39.8188C7.42762 39.8698 6.63004 39.9272 6.31101 39.8188C6.25996 39.9783 6.20254 40.0293 6.36205 40.0293C6.36205 40.0293 8.01463 40.2399 8.17415 40.2399V40.6674C8.17415 41.4139 8.54422 40.6163 8.54422 41.197C8.54422 41.3756 8.5974 41.5352 8.70374 41.6755C8.22519 41.6755 8.38471 41.9946 8.6527 41.9946C9.13124 41.9946 8.6527 42.4221 8.6527 42.5242C9.0802 42.5242 8.76117 42.7347 8.60165 42.8432C8.76117 43.4302 7.91254 43.1622 7.64456 43.1622C7.32553 43.1112 6.94907 42.6326 6.73851 42.6326L6.75127 42.639Z" fill="#869A8F"/>
<path d="M38.5395 42.6901C37.6845 42.2626 39.1265 40.7759 39.554 40.4505C39.554 40.7185 39.1265 42.4221 39.0244 42.5242C38.9734 42.5242 38.5459 42.7922 38.5459 42.6837L38.5395 42.6901Z" fill="#FCEE1F"/>
<path d="M44.1864 41.3633C44.7734 41.2038 45.0924 41.0443 45.571 40.9358C45.622 41.2038 43.1719 43.3859 42.8528 42.4289C42.8528 42.2693 42.4828 41.8993 43.2803 41.5739C44.0779 41.2548 43.8099 41.4654 44.1864 41.3633Z" fill="#FCEE1F"/>
<path d="M44.0776 40.5089C44.0266 40.4004 44.5562 39.7113 44.9837 39.5518C45.4112 39.3412 45.7302 39.2838 46.1577 39.1817C46.4257 39.1817 46.7447 39.0732 47.0127 38.9711C46.3747 39.8261 45.9982 40.5152 45.0985 40.5663C44.888 40.6748 44.8306 40.7258 44.4605 40.6748C44.0904 40.6748 44.1414 40.6237 44.0904 40.5152L44.0776 40.5089Z" fill="#FCEE1F"/>
<path d="M42.3744 41.2556C42.8019 41.2556 43.172 41.2556 43.5484 41.2046C42.4829 41.7342 41.8959 42.3786 40.7282 42.1617C40.6772 42.1617 40.3581 42.0022 40.5687 41.6321C40.7792 41.3641 42.1128 41.2046 42.3808 41.262L42.3744 41.2556Z" fill="#FCEE1F"/>
<path d="M39.9237 41.6817C39.6557 41.6817 39.7132 41.5222 39.7132 41.2542C39.7132 40.5651 40.5108 39.8696 40.9383 39.4421C40.6703 40.0801 40.4597 40.7182 40.4597 41.4137C40.2491 41.6243 39.9812 41.8412 39.9812 41.6817H39.9301H39.9237Z" fill="#FCEE1F"/>
<path d="M44.8757 38.9127C44.4482 39.3402 42.215 41.8925 41.5195 40.8843C41.5195 40.2973 42.7957 40.0293 43.1721 39.9783C43.5996 39.8698 44.4482 39.3402 44.8757 38.9127Z" fill="#FCEE1F"/>
<path d="M44.9839 38.5954C44.9839 37.7404 45.7815 37.3703 46.477 37.3703C46.9555 37.3703 47.383 37.0002 47.8105 36.8407C47.1724 37.6383 46.3174 39.3419 44.9903 38.5954H44.9839Z" fill="#FCEE1F"/>
<path d="M41.0982 40.7757C40.2432 40.3482 42.5338 38.0576 42.9613 37.6365C43.0698 37.7449 42.2722 39.2891 42.2148 39.4486C42.1063 39.7166 41.7873 40.5652 41.0982 40.7821V40.7757Z" fill="#FCEE1F"/>
<path d="M42.5339 39.8189C42.0554 39.1298 43.121 38.5428 43.3315 38.3833C43.491 38.1727 44.2376 37.7963 44.3971 37.5857C44.3971 37.7452 44.027 38.4407 43.9185 38.6002C43.44 39.6658 43.172 39.7168 42.5339 39.8253V39.8189Z" fill="#FCEE1F"/>
<path d="M44.614 34.7017C44.614 35.1802 44.614 36.3542 44.346 36.8328C44.1865 37.2029 43.759 37.7388 43.491 37.5219C43.1209 37.0434 43.223 36.9923 43.5995 36.2458C43.9185 35.7672 44.2886 35.1802 44.614 34.7017Z" fill="#FCEE1F"/>
<path d="M46.4766 36.9414C45.679 36.9414 46.1065 36.0353 46.9552 35.8758C47.4847 35.7674 47.8102 35.6653 48.1802 35.3973C47.8102 35.9269 47.1657 36.9414 46.4766 36.9414Z" fill="#FCEE1F"/>
<path d="M2.80764 32.0989C2.64812 32.0989 2.43756 31.5119 2.64812 31.4098C2.85868 31.1992 3.82216 30.8802 3.28618 30.3442C2.91611 29.9741 2.59708 29.6551 2.59708 29.0681C2.59708 28.5385 2.91611 28.379 3.39465 28.379C3.60522 28.5385 3.76473 29.017 3.92425 29.0681C4.24328 29.4382 4.19223 28.8001 4.40279 29.5977C4.61336 30.5037 5.14933 31.6714 5.67892 32.4753C5.57045 32.9028 5.41093 32.5264 5.41093 32.3669C5.0919 31.7798 4.88134 31.1418 4.45384 30.6632C4.24328 30.2932 3.97529 29.9741 3.81578 29.6487L3.70731 29.6998C3.97529 30.3378 4.45384 30.9248 4.72183 31.5629C5.57683 32.9475 5.25142 32.788 4.19223 31.7735C4.08376 32.0414 4.88134 32.52 4.93877 32.7306C5.2578 33.0496 5.41731 33.5856 5.73635 33.9046C5.57683 34.0641 5.89586 34.1152 5.62788 34.3831C5.20037 34.8106 6.05538 34.3321 5.73635 34.7022C5.73635 34.7532 4.56231 34.9702 5.2578 34.9702C5.41731 35.1297 5.62788 35.0786 5.46836 35.3402C5.30884 35.1297 5.35989 35.1297 5.20037 35.2892C4.93239 35.5572 5.04086 35.6593 5.04086 35.8188C5.25142 35.8188 4.61336 36.4058 4.29432 35.9273C4.13481 36.1952 4.50488 36.4568 4.6644 36.5653C4.39641 36.5653 4.34537 36.2463 4.18585 36.2463C4.18585 36.2463 3.75835 36.1378 3.65626 35.9783C3.38827 35.8188 3.06924 34.8617 3.33723 34.5427C4.77287 33.2665 3.54779 32.8901 2.80764 32.0925V32.0989Z" fill="#869A8F"/>
<path d="M45.7816 33.0571C45.3541 34.1737 46.4197 35.3988 45.252 36.0942C43.8674 36.1453 45.6795 33.3761 45.7816 33.0571Z" fill="#FCEE1F"/>
<path d="M47.7531 33.9056C48.0721 33.7461 48.4422 33.427 48.6592 33.1591C48.8187 33.5291 47.5936 35.8772 46.9045 35.2328C46.5855 34.9137 46.9045 34.7542 46.9045 34.6457C46.9555 34.5373 47.651 34.0077 47.7595 33.8992L47.7531 33.9056Z" fill="#FCEE1F"/>
<path d="M2.43794 33.6931L2.27842 33.6421L2.22738 33.5336L2.11891 33.4826L2.06786 33.3167L1.90197 33.2146L1.85092 33.1061L1.74245 32.9466L1.69141 32.8381V32.7361L1.90197 32.5765V32.6276H2.01044H2.06786H2.16995H2.22738H2.27842H2.38689H2.48898L2.70593 32.6786V32.7361H2.75697H2.80802V32.7871H2.86544L2.91649 32.8381H2.96753V32.9466L2.86544 32.9977L2.80802 33.1061L2.75697 33.2146L2.70593 33.3167L2.6485 33.4826L2.59746 33.5336L2.54641 33.6421L2.48898 33.6931H2.43794Z" fill="#D2AA68"/>
<path d="M47.5425 33.5332C46.4769 33.1057 48.1295 31.2425 48.557 30.3939C48.557 31.3 48.557 33.9096 47.5425 33.5332Z" fill="#FCEE1F"/>
<path d="M7.01927 34.8669C7.01927 34.8669 6.54072 35.237 6.75129 35.6135C7.01927 35.9836 7.07032 35.824 7.44039 36.041C7.81047 36.309 7.01289 36.7301 7.44039 37.1065C7.91894 37.4766 7.96999 36.577 8.18693 36.7875C8.34644 36.8386 6.9108 34.9244 7.01289 34.8733L7.01927 34.8669Z" fill="#869A8F"/>
<path d="M26.8244 50.9474L29.064 51.8534L28.1005 52.013L26.5054 51.2154L26.8244 50.9474Z" fill="#869A8F"/>
<path d="M22.5112 52.115L25.759 50.4688L26.027 50.6794L23.5258 52.2235L22.5112 52.115Z" fill="#FCEE1F"/>
<path d="M20.9673 51.7449L23.8449 50.4688L24.164 50.5199L21.7649 51.796H21.3948L20.9673 51.7449Z" fill="#FCEE1F"/>
<path d="M28.2603 50.5196L30.2319 51.3746L30.7678 51.1576L28.3687 50.36L28.2603 50.5196Z" fill="#869A8F"/>
<path d="M33.2178 49.4555L39.0752 48.977L38.5392 50.0936L33.9069 49.9915L33.2178 49.4555Z" fill="#64908F" stroke="#231F20" stroke-width="0.0446644"/>
<path d="M35.6105 51.7438L28.209 49.6127L28.528 49.2936L35.9295 50.4677L35.6105 51.7438Z" fill="#64908F" stroke="#231F20" stroke-width="0.0446644"/>
<path d="M18.2554 49.563C18.2554 49.563 18.5744 50.15 18.5744 50.2521C18.5744 50.3542 18.785 50.9987 19.372 50.7817C20.1696 50.4627 19.7421 50.0926 19.1614 49.9267C18.2554 49.6587 18.2554 49.5566 18.2554 49.5566V49.563Z" stroke="#231F20" stroke-width="0.0446644"/>
<path d="M25.5995 44.9307C37.9013 44.9307 47.9636 34.8685 47.9636 22.5666C47.9636 10.2648 37.9013 0.202515 25.5995 0.202515C13.2976 0.202515 3.23535 10.2648 3.23535 22.5666C3.23535 34.8685 13.2976 44.9307 25.5995 44.9307Z" fill="#D2AA68"/>
<path d="M46.4196 32.8969C46.4196 32.8458 46.9492 31.7802 46.7386 32.4183C46.7386 32.6863 47.1087 34.6005 46.4707 34.8174C45.9411 34.9769 46.0432 34.0709 46.1006 33.8603C46.209 33.6498 46.3111 33.2223 46.4196 32.9032V32.8969Z" fill="#FCEE1F"/>
<path d="M25.5998 43.3866C37.0466 43.3866 46.4198 34.0134 46.4198 22.5666C46.4198 11.1197 37.0466 1.74658 25.5998 1.74658C14.1529 1.74658 4.77979 11.1133 4.77979 22.5666C4.77979 34.0198 14.1529 43.3866 25.5998 43.3866Z" fill="#03B5E1"/>
<path d="M25.606 40.3677C35.4272 40.3677 43.3889 32.406 43.3889 22.5849C43.3889 12.7637 35.4272 4.80206 25.606 4.80206C15.7849 4.80206 7.82324 12.7637 7.82324 22.5849C7.82324 32.406 15.7849 40.3677 25.606 40.3677Z" fill="#EE3541"/>
<path d="M25.5994 36.8903C33.4795 36.8903 39.9239 30.4459 39.9239 22.5658C39.9239 14.6858 33.4795 8.24133 25.5994 8.24133C17.7193 8.24133 11.2749 14.6858 11.2749 22.5658C11.2749 30.4459 17.7193 36.8903 25.5994 36.8903Z" fill="#519F45"/>
<path d="M29.8618 32.4679L40.0326 36.6727L35.9872 26.502L46.209 22.3482L35.8277 18.0923L40.0326 7.92159L29.9129 12.0754L25.5485 1.90466L21.1268 12.0754L11.0135 7.92159L15.2183 18.0923L5.09863 22.3482L15.1098 26.502L11.0135 36.6727L21.1842 32.4679L25.5485 43.4362L29.8618 32.4679Z" fill="#D2AA68"/>
<path d="M25.5484 41.2539L29.4342 31.4533L38.5904 35.237L34.9725 26.0808L44.1287 22.3481L34.813 18.5134L38.5904 9.35715L29.5426 13.0834L25.5484 3.86981L21.5541 13.0834L12.4489 9.35715L16.2263 18.5134L7.12109 22.3481L16.1242 26.0808L12.4489 35.237L21.6625 31.4533L25.5484 41.2539Z" fill="white"/>
<path d="M27.7304 28.6343C27.6219 28.8449 27.0413 29.5404 26.7159 29.5404C26.5053 29.5404 26.0268 29.5404 25.9183 29.4319C25.6503 29.4319 25.8673 29.2213 25.4908 29.2213C24.5337 29.9104 23.5766 29.5914 22.7727 28.6917C22.4536 28.3727 21.9177 27.4666 21.8666 26.9881C21.8666 26.8796 21.2796 24.9654 21.2796 24.6464C21.2796 24.7549 21.1201 26.9371 21.4391 26.9371C20.9095 26.9371 20.5841 24.4358 20.5841 24.4358C20.3735 22.7833 20.9031 20.6521 21.9687 19.325C21.8602 21.1371 21.8602 22.8917 22.2877 24.6528C22.2877 25.1313 22.9258 26.9945 23.2448 26.9945C23.2448 27.103 23.7234 27.205 23.7234 26.835C23.7234 26.4649 23.7234 26.3564 23.5639 25.98C23.0853 25.2909 22.8173 24.1168 22.5493 23.3192C22.5493 23.2108 22.4983 22.8917 22.4409 22.5727C22.3324 20.6011 22.7089 17.3534 24.036 15.7582C24.304 15.3881 24.3551 15.1201 24.304 15.7071C24.304 17.2002 24.623 18.8464 24.8336 20.2884C25.0442 21.4051 25.3122 21.5135 25.5227 22.4706C25.5738 23.0576 25.5738 23.6957 25.5227 24.3338C25.4142 25.2909 25.2037 26.3054 25.2037 27.2625C25.4142 27.6325 25.2037 27.741 25.6822 27.741C26.2118 27.741 26.3713 26.0884 26.2692 25.6673C26.2692 24.7102 26.2182 23.2172 25.7907 22.3685C25.6822 22.1005 25.3632 21.2519 25.3122 20.9839C25.2037 20.6139 25.1526 20.2948 25.1016 20.1289C24.7315 18.3168 24.5146 15.6561 25.3122 13.9525C25.3632 13.7419 25.4206 13.4229 25.5801 13.2634C25.5801 13.7419 25.4717 14.2779 25.6886 14.699C25.6886 15.873 27.9282 20.448 28.1388 21.303C28.1388 21.303 28.4068 22.0495 28.4578 22.3685C28.5663 23.7021 28.6173 25.1888 28.4578 26.4713C28.4068 27.2178 28.0303 28.1239 27.7113 28.6534L27.7304 28.6343Z" fill="#EB2127"/>
<path d="M27.8902 28.6348C28.1008 28.3668 28.6878 27.0396 28.7962 26.2931C28.9558 25.0169 29.0642 23.7344 28.9558 22.5093C28.9558 22.1903 28.7452 21.7118 28.6367 21.3353C28.4262 20.6972 28.2667 20.1613 28.0497 19.6317C27.7307 18.9426 26.9331 17.1815 26.9331 15.5864C27.2011 15.8544 27.3032 16.2244 27.4627 16.4414C27.9923 17.3474 28.7962 18.2535 29.3769 19.1595C29.9065 19.9571 30.653 21.3417 30.7104 22.2988C30.7615 23.4154 30.7615 24.3725 30.3914 25.336C29.8618 26.6121 29.0579 27.9456 27.9412 28.7432L27.8902 28.6348Z" fill="#EB2127"/>
<path d="M18.198 39.6021C18.6765 39.6021 18.9955 39.9721 18.9955 40.3996C18.9955 40.8782 18.6255 41.1972 18.198 41.1972C17.7194 41.1972 17.4004 40.8271 17.4004 40.3996C17.4004 39.9721 17.7705 39.6021 18.198 39.6021Z" fill="#231F20"/>
<path d="M18.0897 39.7108C18.4598 39.7108 18.7788 40.0298 18.7788 40.3489C18.7788 40.719 18.4598 41.038 18.0897 41.038C17.7196 41.038 17.4517 40.719 17.4517 40.3489C17.4517 40.0298 17.7707 39.7108 18.0897 39.7108Z" fill="#FFCB05"/>
<path d="M32.4141 39.8706C32.7331 39.5515 33.2691 39.5515 33.5881 39.8706C33.9071 40.1896 33.9071 40.7256 33.5881 41.0446C33.2691 41.3636 32.7331 41.3636 32.4141 41.0446C32.095 40.7256 32.095 40.1896 32.4141 39.8706Z" fill="#231F20"/>
<path d="M32.4139 40.0296C32.6819 39.7616 33.103 39.7616 33.371 40.0296C33.639 40.2976 33.639 40.7187 33.371 40.9867C33.103 41.2547 32.6819 41.2547 32.4139 40.9867C32.1459 40.6677 32.1459 40.2402 32.4139 40.0296Z" fill="#FFCB05"/>
<path d="M42.6421 29.9694C42.6421 29.4908 43.0122 29.1718 43.4397 29.1718C43.8672 29.1718 44.2372 29.5419 44.2372 29.9694C44.2372 30.4479 43.8672 30.767 43.4397 30.767C43.0122 30.818 42.6421 30.4479 42.6421 29.9694Z" fill="#231F20"/>
<path d="M42.7437 30.0697C42.7437 29.6996 43.0116 29.3806 43.3817 29.3806C43.7518 29.3806 44.0708 29.6996 44.0708 30.0697C44.0708 30.4398 43.7518 30.7078 43.3817 30.7078C43.0116 30.7588 42.7437 30.4398 42.7437 30.0697Z" fill="#FFCB05"/>
<path d="M42.8526 15.8025C42.5335 15.4834 42.5335 14.9475 42.8526 14.6284C43.1716 14.3094 43.7076 14.3094 44.0266 14.6284C44.3456 14.9475 44.3456 15.4834 44.0266 15.8025C43.7076 16.1215 43.1716 16.1215 42.8526 15.8025Z" fill="#231F20"/>
<path d="M43.012 15.8031C42.744 15.5351 42.744 15.114 43.012 14.846C43.28 14.578 43.7011 14.578 43.9691 14.846C44.2371 15.114 44.2371 15.5351 43.9691 15.8031C43.7011 16.0711 43.28 16.0711 43.012 15.8031Z" fill="#FFCB05"/>
<path d="M33.0012 5.58185C32.5226 5.58185 32.2036 5.21177 32.2036 4.78427C32.2036 4.35677 32.5737 3.98669 33.0012 3.98669C33.4287 3.98669 33.7988 4.35677 33.7988 4.78427C33.8498 5.21177 33.4797 5.58185 33.0012 5.58185Z" fill="#231F20"/>
<path d="M33.1097 5.47182C32.7397 5.47182 32.4717 5.20384 32.4717 4.83376C32.4717 4.46368 32.7397 4.14465 33.1097 4.14465C33.4798 4.14465 33.7988 4.46368 33.7988 4.83376C33.7988 5.15279 33.4798 5.47182 33.1097 5.47182Z" fill="#FFCB05"/>
<path d="M18.8362 5.31236C18.5171 5.63139 17.9812 5.63139 17.6621 5.31236C17.3431 4.99333 17.3431 4.45735 17.6621 4.13832C17.9812 3.81929 18.5171 3.81929 18.8362 4.13832C19.1552 4.5084 19.1552 4.99333 18.8362 5.31236Z" fill="#231F20"/>
<path d="M18.8358 5.20337C18.5678 5.47136 18.1467 5.47136 17.8787 5.20337C17.6107 4.93539 17.6107 4.51426 17.8787 4.24628C18.1467 3.97829 18.5678 3.97829 18.8358 4.24628C19.0464 4.51426 19.0464 4.93539 18.8358 5.20337Z" fill="#FFCB05"/>
<path d="M8.6142 15.2159C8.6142 15.6945 8.24412 16.0135 7.81662 16.0135C7.33807 16.0135 7.01904 15.6434 7.01904 15.2159C7.01904 14.7374 7.38912 14.4183 7.81662 14.4183C8.24412 14.3673 8.6142 14.7374 8.6142 15.2159Z" fill="#231F20"/>
<path d="M8.50637 15.109C8.50637 15.4791 8.18734 15.7471 7.86831 15.7471C7.49823 15.7471 7.1792 15.4791 7.1792 15.109C7.1792 14.739 7.49823 14.4199 7.86831 14.4199C8.18734 14.4199 8.50637 14.739 8.50637 15.109Z" fill="#FFCB05"/>
<path d="M8.34642 29.3804C8.66545 29.6994 8.66545 30.2354 8.34642 30.5544C8.02738 30.8735 7.49141 30.8735 7.17238 30.5544C6.85335 30.2354 6.85335 29.6994 7.17238 29.3804C7.49141 29.0614 8.02738 29.0614 8.34642 29.3804Z" fill="#231F20"/>
<path d="M8.18738 29.3795C8.45537 29.6475 8.45537 30.0686 8.18738 30.3366C7.91939 30.6046 7.49827 30.6046 7.23029 30.3366C6.9623 30.0686 6.9623 29.6475 7.23029 29.3795C7.54932 29.1115 7.97682 29.1115 8.18738 29.3795Z" fill="#FFCB05"/>
<path d="M8.61458 43.3867V44.4523C8.61458 44.4523 7.28103 44.4523 7.22998 44.0822C7.22998 43.7121 7.91909 43.4441 8.61458 43.3931V43.3867Z" fill="#D2AA68"/>
<path d="M11.8112 49.5044L12.8257 50.0914C12.8257 50.0914 12.2387 51.157 11.8686 51.0485C11.5496 50.889 11.5496 50.1425 11.8176 49.5044H11.8112Z" fill="#D2AA68"/>
<path d="M26.4547 46.2572L25.7656 45.4596C25.7656 45.4596 26.5632 44.7131 26.8312 44.93C27.1502 45.198 26.8822 45.785 26.4611 46.2636L26.4547 46.2572Z" fill="#D2AA68"/>
<path d="M20.6486 49.8815L21.5547 50.628C21.5547 50.628 20.8082 51.5851 20.4891 51.4256C20.119 51.215 20.2786 50.4685 20.6486 49.8815Z" fill="#D2AA68"/>
<path d="M36.3062 47.5406C36.3062 47.5406 38.4883 47.2216 39.5028 46.743" stroke="#231F20" stroke-width="0.427502" stroke-linecap="round"/>
<path d="M37.2632 46.5259C37.2632 46.5259 39.6623 45.8878 40.83 45.0903" stroke="#231F20" stroke-width="0.427502" stroke-linecap="round"/>
<path d="M40.3008 43.8656C40.3008 43.8656 42.0555 43.1765 43.2295 42.3726" stroke="#231F20" stroke-width="0.382838" stroke-linecap="round"/>
<path d="M42.2656 42.5304C42.2656 42.5304 43.5992 41.8413 44.7158 41.0374" stroke="#231F20" stroke-width="0.382838" stroke-linecap="round"/>
<path d="M43.6504 41.2044C43.6504 41.2044 44.8755 40.7259 45.9921 39.6093" stroke="#231F20" stroke-width="0.382838" stroke-linecap="round"/>
<path d="M44.7158 39.125C44.8753 39.0165 45.1944 38.9145 45.7303 38.0594" stroke="#231F20" stroke-width="0.382838" stroke-linecap="round"/>
<path d="M42.7441 37.6294C42.9037 37.5209 43.2227 37.4188 43.7587 36.5638" stroke="#231F20" stroke-width="0.210561" stroke-linecap="round"/>
<path d="M43.0122 37.6883C43.1717 37.5798 43.4908 37.4777 44.0267 36.6227" stroke="#231F20" stroke-width="0.210561" stroke-linecap="round"/>
<path d="M43.1719 37.8474C43.3314 37.7389 43.6504 37.6368 44.1864 36.7818" stroke="#231F20" stroke-width="0.210561" stroke-linecap="round"/>
<path d="M40.8301 44.5526C40.8301 44.5526 41.4681 44.3931 42.6422 43.6976" stroke="#231F20" stroke-width="0.382838" stroke-linecap="round"/>
</g>
<defs>
<clipPath id="clip0_6062_25442">
<rect width="52" height="52" fill="white"/>
</clipPath>
</defs>
</svg>
